<svg width="18" height="15" viewBox="0 0 18 15" fill="none" xmlns="http://www.w3.org/2000/svg">
<path d="M13.2044 4.58246C12.8815 4.39218 12.4618 4.39218 12.1068 4.58246L9.58851 6.04124L7.87743 6.99263L5.35925 8.45138C5.0364 8.64165 4.6167 8.64165 4.26157 8.45138L2.25992 7.3097C1.93708 7.11943 1.71108 6.77063 1.71108 6.39007V4.13848C1.71108 3.75793 1.90479 3.40909 2.25992 3.21882L4.22928 2.10888C4.55213 1.91861 4.97183 1.91861 5.32696 2.10888L7.29633 3.21882C7.61915 3.40909 7.84516 3.75793 7.84516 4.13848V5.59726L9.55624 4.61417V3.1554C9.55624 2.77484 9.36256 2.42601 9.00741 2.23573L5.35925 0.142706C5.0364 -0.0475688 4.6167 -0.0475688 4.26157 0.142706L0.548838 2.23573C0.193708 2.42601 0 2.77484 0 3.1554V7.37317C0 7.75371 0.193708 8.10258 0.548838 8.29284L4.26157 10.3859C4.58441 10.5761 5.00412 10.5761 5.35925 10.3859L7.87743 8.95878L9.58851 7.97571L12.1068 6.54863C12.4296 6.35836 12.8493 6.35836 13.2044 6.54863L15.1738 7.65857C15.4966 7.84884 15.7226 8.19771 15.7226 8.57825V10.8298C15.7226 11.2104 15.5289 11.5592 15.1738 11.7495L13.2044 12.8911C12.8815 13.0814 12.4618 13.0814 12.1068 12.8911L10.1374 11.7812C9.81452 11.5909 9.58851 11.2421 9.58851 10.8615V9.40279L7.87743 10.3859V11.8446C7.87743 12.2251 8.07117 12.574 8.42625 12.7643L12.139 14.8573C12.4618 15.0476 12.8815 15.0476 13.2367 14.8573L16.9494 12.7643C17.2723 12.574 17.4983 12.2251 17.4983 11.8446V7.62684C17.4983 7.2463 17.3045 6.8975 16.9494 6.70723L13.2044 4.58246Z" fill="white"/>
</svg>
