<svg width="22" height="21" viewBox="0 0 22 21" fill="none" xmlns="http://www.w3.org/2000/svg">
<path fill-rule="evenodd" clip-rule="evenodd" d="M5.09771 2.96498L1.81428 9.66889C1.80115 9.69317 1.79663 9.721 1.80142 9.74804C1.80621 9.77508 1.82003 9.79983 1.84076 9.81846L10.7041 18.0799C10.7296 18.1022 10.7628 18.1146 10.7971 18.1146C10.8314 18.1146 10.8645 18.1022 10.89 18.0799L19.7587 9.81846C19.7792 9.7997 19.7929 9.77496 19.7977 9.74798C19.8025 9.72099 19.7981 9.69323 19.7852 9.66889L16.5018 2.96498C16.493 2.94166 16.477 2.92162 16.4558 2.9077C16.4347 2.89379 16.4096 2.88671 16.3841 2.88748H5.2142C5.18903 2.88815 5.16458 2.8958 5.14373 2.90953C5.12288 2.92326 5.10651 2.9425 5.09654 2.96498H5.09771Z" fill="#50AF95"/>
<path fill-rule="evenodd" clip-rule="evenodd" d="M11.9397 10.3547C11.8761 10.3599 11.5472 10.3805 10.8151 10.3805C10.2318 10.3805 9.81787 10.365 9.66932 10.3547C7.41516 10.2569 5.73373 9.87513 5.73373 9.42126C5.73373 8.9674 7.41516 8.58074 9.66932 8.48293V9.97322C9.8164 9.98352 10.237 10.0093 10.8204 10.0093C11.5205 10.0093 11.8705 9.97837 11.9344 9.97322V8.48293C14.1832 8.58074 15.8646 8.96253 15.8646 9.41612C15.8646 9.8697 14.1879 10.2569 11.9397 10.3547ZM11.9397 8.33336V6.9975H15.0798V4.96067H6.52944V6.9975H9.66932V8.33336C7.11805 8.44775 5.19806 8.93651 5.19806 9.52965C5.19806 10.1228 7.11805 10.6076 9.66932 10.726V15.0012H11.9397V10.726C14.4856 10.6116 16.4006 10.1225 16.4006 9.5348C16.4006 8.94709 14.4856 8.44661 11.9397 8.33364V8.33336Z" fill="white"/>
</svg>
