<svg width="14" height="15" viewBox="0 0 14 15" fill="none" xmlns="http://www.w3.org/2000/svg">
<path d="M12.8933 3.44157C10.6483 3.2191 8.38989 3.10449 6.1382 3.10449C4.80337 3.10449 3.46854 3.17191 2.13371 3.30674L0.758427 3.44157" stroke="#7C7B7B" stroke-width="1.5" stroke-linecap="round" stroke-linejoin="round"/>
<path d="M4.46563 2.76067L4.61395 1.87753C4.72181 1.23708 4.80271 0.758427 5.94204 0.758427H7.70833C8.84766 0.758427 8.9353 1.26405 9.03642 1.88427L9.18474 2.76067" stroke="#7C7B7B" stroke-width="1.5" stroke-linecap="round" stroke-linejoin="round"/>
<path d="M11.4441 5.57191L11.0059 12.3607C10.9317 13.4191 10.8711 14.2416 8.99015 14.2416H4.66206C2.78116 14.2416 2.72049 13.4191 2.64633 12.3607L2.20813 5.57191" stroke="#7C7B7B" stroke-width="1.5" stroke-linecap="round" stroke-linejoin="round"/>
<path d="M5.70005 10.5337H7.945" stroke="#7C7B7B" stroke-width="1.5" stroke-linecap="round" stroke-linejoin="round"/>
<path d="M5.14111 7.83708H8.5119" stroke="#7C7B7B" stroke-width="1.5" stroke-linecap="round" stroke-linejoin="round"/>
</svg>
