<svg width="43" height="43" viewBox="0 0 43 43" fill="none" xmlns="http://www.w3.org/2000/svg">
<path d="M33.1452 17.9167L33.7006 17.4127C33.5584 17.256 33.3567 17.1667 33.1452 17.1667V17.9167ZM39.416 24.8274H40.166C40.166 24.641 40.0966 24.4614 39.9714 24.3234L39.416 24.8274ZM39.416 32.25L39.4161 33C39.8303 32.9999 40.166 32.6642 40.166 32.25H39.416ZM35.6799 32.2505L34.9728 32.5003V32.5003L35.6799 32.2505ZM30.6104 32.2505L31.3176 32.5003L31.3176 32.5003L30.6104 32.2505ZM26.8743 17.9167V17.1667C26.4601 17.1667 26.1243 17.5025 26.1243 17.9167H26.8743ZM1.79102 10C1.3768 10 1.04102 10.3358 1.04102 10.75C1.04102 11.1642 1.3768 11.5 1.79102 11.5V10ZM26.8743 10.75H27.6243C27.6243 10.3358 27.2886 10 26.8743 10V10.75ZM7.16622 31.5C6.752 31.4999 6.41613 31.8356 6.41602 32.2498C6.4159 32.664 6.7516 32.9999 7.16581 33L7.16622 31.5ZM8.06185 22.25C8.47606 22.25 8.81185 21.9142 8.81185 21.5C8.81185 21.0858 8.47606 20.75 8.06185 20.75V22.25ZM5.37435 20.75C4.96014 20.75 4.62435 21.0858 4.62435 21.5C4.62435 21.9142 4.96014 22.25 5.37435 22.25V20.75ZM8.06185 27.625C8.47606 27.625 8.81185 27.2892 8.81185 26.875C8.81185 26.4608 8.47606 26.125 8.06185 26.125V27.625ZM7.16602 26.125C6.7518 26.125 6.41602 26.4608 6.41602 26.875C6.41602 27.2892 6.7518 27.625 7.16602 27.625V26.125ZM8.06185 16.875C8.47606 16.875 8.81185 16.5392 8.81185 16.125C8.81185 15.7108 8.47606 15.375 8.06185 15.375V16.875ZM3.58268 15.375C3.16847 15.375 2.83268 15.7108 2.83268 16.125C2.83268 16.5392 3.16847 16.875 3.58268 16.875V15.375ZM32.5898 18.4207L38.8606 25.3314L39.9714 24.3234L33.7006 17.4127L32.5898 18.4207ZM38.666 24.8274V32.25H40.166V24.8274H38.666ZM39.4159 31.5L35.6798 31.5005L35.68 33.0005L39.4161 33L39.4159 31.5ZM36.3871 32.0007C35.9158 30.6663 34.6433 29.7083 33.1452 29.7083V31.2083C33.9878 31.2083 34.7065 31.7466 34.9728 32.5003L36.3871 32.0007ZM33.1452 29.7083C31.6471 29.7083 30.3746 30.6663 29.9032 32.0007L31.3176 32.5003C31.5838 31.7466 32.3026 31.2083 33.1452 31.2083V29.7083ZM30.6105 31.5005L26.8745 31.5L26.8742 33L30.6103 33.0005L30.6105 31.5005ZM27.6243 32.25V17.9167H26.1243V32.25H27.6243ZM26.8743 18.6667H33.1452V17.1667H26.8743V18.6667ZM1.79102 11.5H26.8743V10H1.79102V11.5ZM26.1243 10.75V32.25H27.6243V10.75H26.1243ZM26.8743 31.5L14.1799 31.5005L14.18 33.0005L26.8744 33L26.8743 31.5ZM14.8871 32.0007C14.4158 30.6663 13.1433 29.7083 11.6452 29.7083V31.2083C12.4878 31.2083 13.2065 31.7466 13.4728 32.5003L14.8871 32.0007ZM11.6452 29.7083C10.1471 29.7083 8.87459 30.6663 8.40324 32.0007L9.8176 32.5003C10.0838 31.7466 10.8026 31.2083 11.6452 31.2083V29.7083ZM9.11062 31.5005L7.16622 31.5L7.16581 33L9.11022 33.0005L9.11062 31.5005ZM33.1452 31.2083C34.2152 31.2083 35.0827 32.0758 35.0827 33.1458H36.5827C36.5827 31.2474 35.0437 29.7083 33.1452 29.7083V31.2083ZM35.0827 33.1458C35.0827 34.2159 34.2152 35.0833 33.1452 35.0833V36.5833C35.0437 36.5833 36.5827 35.0443 36.5827 33.1458H35.0827ZM33.1452 35.0833C32.0751 35.0833 31.2077 34.2159 31.2077 33.1458H29.7077C29.7077 35.0443 31.2467 36.5833 33.1452 36.5833V35.0833ZM31.2077 33.1458C31.2077 32.0758 32.0751 31.2083 33.1452 31.2083V29.7083C31.2467 29.7083 29.7077 31.2474 29.7077 33.1458H31.2077ZM11.6452 31.2083C12.7152 31.2083 13.5827 32.0758 13.5827 33.1458H15.0827C15.0827 31.2474 13.5437 29.7083 11.6452 29.7083V31.2083ZM13.5827 33.1458C13.5827 34.2159 12.7152 35.0833 11.6452 35.0833V36.5833C13.5437 36.5833 15.0827 35.0443 15.0827 33.1458H13.5827ZM11.6452 35.0833C10.5751 35.0833 9.70768 34.2159 9.70768 33.1458H8.20768C8.20768 35.0443 9.7467 36.5833 11.6452 36.5833V35.0833ZM9.70768 33.1458C9.70768 32.0758 10.5751 31.2083 11.6452 31.2083V29.7083C9.7467 29.7083 8.20768 31.2474 8.20768 33.1458H9.70768ZM8.06185 20.75H5.37435V22.25H8.06185V20.75ZM8.06185 26.125H7.16602V27.625H8.06185V26.125ZM8.06185 15.375H3.58268V16.875H8.06185V15.375ZM29.9032 32.0007C29.7764 32.3599 29.7077 32.7457 29.7077 33.1458H31.2077C31.2077 32.9182 31.2466 32.7012 31.3176 32.5003L29.9032 32.0007ZM36.5827 33.1458C36.5827 32.7457 36.514 32.3599 36.3871 32.0007L34.9728 32.5003C35.0437 32.7012 35.0827 32.9182 35.0827 33.1458H36.5827ZM8.40324 32.0007C8.27638 32.3599 8.20768 32.7457 8.20768 33.1458H9.70768C9.70768 32.9182 9.74663 32.7012 9.8176 32.5003L8.40324 32.0007ZM15.0827 33.1458C15.0827 32.7457 15.014 32.3599 14.8871 32.0007L13.4728 32.5003C13.5437 32.7012 13.5827 32.9182 13.5827 33.1458H15.0827Z" fill="black"/>
</svg>
