<svg width="70" height="70" viewBox="0 0 70 70" fill="none" xmlns="http://www.w3.org/2000/svg">
<path d="M19.8478 11.7305C21.4545 12.1687 23.0612 12.4608 24.6678 12.899C26.2745 13.3372 27.8812 13.6293 29.4879 14.0675C29.9261 14.2135 30.0721 14.0675 30.2182 13.6293C30.8024 11.1462 31.3867 8.80926 31.9709 6.32621C32.117 5.88803 32.263 5.74196 32.7012 5.88802C34.1618 6.32621 35.4764 6.61833 36.937 6.91045C37.3752 7.05652 37.3752 7.20258 37.2291 7.4947C36.6449 9.83169 36.0606 12.3147 35.4764 14.6517C35.4764 14.7978 35.4764 14.9438 35.3303 15.236C36.4988 15.5281 37.8134 15.8202 38.9819 16.1123C39.1279 16.1123 39.274 15.8202 39.4201 15.6741C39.8582 13.7753 40.2964 12.0226 40.8807 10.1238C41.0267 9.53956 41.1728 8.95532 41.3189 8.37107C41.3189 8.07895 41.4649 7.93289 41.757 8.07895C43.2177 8.51713 44.6783 8.80926 46.285 9.24744C46.431 9.24744 46.431 9.3935 46.5771 9.3935C46.1389 11.2923 45.7007 13.045 45.2625 14.7978C45.1165 15.5281 44.9704 16.2584 44.6783 16.9887C44.5322 17.4269 44.6783 17.5729 45.1165 17.719C46.7231 18.4493 48.3298 19.1796 49.9365 19.9099C51.3971 20.7863 52.7117 21.9548 53.7341 23.4154C55.0486 25.6063 55.1947 27.9433 54.6105 30.2803C54.1723 31.887 53.588 33.3476 52.4195 34.5161C51.5432 35.3925 50.3747 35.9767 49.2062 36.4149C49.0601 36.4149 48.9141 36.561 48.6219 36.561C49.2062 36.9991 49.7904 37.2913 50.3747 37.7294C52.1274 39.044 53.2959 40.6507 53.8801 42.6955C54.1723 44.3022 54.0262 46.055 53.588 47.6616C53.0038 49.7065 52.2735 51.4592 50.9589 53.0659C49.3522 54.9647 47.3074 55.9871 44.9704 56.2793C41.9031 56.7174 38.9819 56.4253 36.0606 55.9871C35.6225 55.8411 35.3303 55.9871 35.1843 56.4253C34.6 58.7623 34.0158 61.2453 33.4315 63.5823C33.2855 64.1666 33.2855 64.3126 32.5552 64.0205C31.2406 63.7284 29.78 63.2902 28.4654 62.9981C28.0273 62.852 28.0273 62.706 28.1733 62.4138C28.7576 59.9308 29.3418 57.4477 30.0721 55.1108C30.0721 54.8186 30.2182 54.6726 29.9261 54.5265C28.7576 54.2344 27.5891 53.9423 26.2745 53.6501C25.9824 54.9647 25.5442 56.2793 25.2521 57.5938C24.96 58.9084 24.5218 60.2229 24.2297 61.5375C24.0836 61.8296 24.0836 61.9757 23.6454 61.8296C22.1848 61.3914 20.7242 61.0993 19.2636 60.8072C18.8254 60.6611 18.8254 60.515 18.9714 60.2229C19.5557 57.7399 20.1399 55.2568 20.8702 52.9198C20.8702 52.7738 21.0163 52.6277 21.0163 52.3356C17.6569 51.4592 14.2975 50.5829 10.792 49.7065C11.0841 49.1222 11.2302 48.6841 11.5223 48.0998C12.1065 46.7853 12.6908 45.4707 13.129 44.3022C13.275 43.864 13.4211 43.864 13.8593 43.864C14.8817 44.1562 16.0502 44.4483 17.0726 44.5943C18.2411 44.8865 19.1175 44.3022 19.2636 43.2798C21.1624 35.8306 23.0612 28.3815 24.8139 20.7863C25.106 19.6178 24.3757 18.3033 23.0612 17.8651C21.7466 17.4269 20.4321 17.1348 19.2636 16.8426C18.9714 16.8426 18.8254 16.6966 18.9714 16.4045C19.4096 14.7978 19.8478 13.045 20.286 11.4384C19.7017 11.8765 19.7017 11.8765 19.8478 11.7305ZM27.2969 47.8077C27.443 47.8077 27.5891 47.9537 27.5891 47.9537C29.9261 48.538 32.4091 49.2683 34.8921 49.4144C36.6449 49.5604 38.2516 49.5604 39.8582 48.9762C42.6334 48.0998 43.8019 44.4483 42.1952 42.1113C41.4649 40.9428 40.2964 40.2125 39.1279 39.4822C36.4988 38.0216 33.4315 37.4373 30.5103 36.8531C30.0721 36.707 30.0721 36.8531 29.9261 37.2913C29.6339 38.7519 29.1957 40.0664 28.9036 41.527C28.3194 43.5719 27.8812 45.6168 27.2969 47.8077ZM39.5661 32.9094C39.8582 32.9094 40.5885 32.7633 41.1728 32.6173C43.948 32.033 45.4086 28.8197 43.948 26.3366C43.2177 25.0221 41.9031 24.1457 40.5885 23.5615C38.5437 22.6851 36.4988 22.2469 34.3079 21.6627C33.8697 21.5166 33.7237 21.6627 33.5776 22.1009C32.8473 25.1681 32.117 28.0894 31.2406 31.1567C31.0945 31.4488 31.2406 31.5949 31.5327 31.7409C32.117 31.887 32.5552 32.033 33.1394 32.1791C35.3303 32.4712 37.2291 32.9094 39.5661 32.9094Z" fill="#F5B300"/>
</svg>
