<svg width="48" height="49" viewBox="0 0 48 49" fill="none" xmlns="http://www.w3.org/2000/svg">
<path d="M36.999 20.4167L38.0501 19.4824C37.7832 19.1822 37.4007 19.0104 36.999 19.0104V20.4167ZM43.999 28.2917H45.4053C45.4053 27.9473 45.2789 27.6148 45.0501 27.3574L43.999 28.2917ZM43.999 36.75L43.9992 38.1562C44.7758 38.1561 45.4053 37.5266 45.4053 36.75H43.999ZM39.8285 36.7506L38.4996 37.2104L38.4996 37.2104L39.8285 36.7506ZM34.1695 36.7506L35.4985 37.2104L35.4985 37.2104L34.1695 36.7506ZM29.999 20.4167V19.0104C29.2224 19.0104 28.5928 19.64 28.5928 20.4167H29.999ZM1.99902 10.8438C1.22237 10.8438 0.592774 11.4733 0.592774 12.25C0.592774 13.0267 1.22237 13.6562 1.99902 13.6562V10.8438ZM29.999 12.25H31.4053C31.4053 11.4733 30.7757 10.8438 29.999 10.8438V12.25ZM7.99941 35.3437C7.22276 35.3435 6.59299 35.973 6.59277 36.7496C6.59256 37.5263 7.22199 38.156 7.99864 38.1562L7.99941 35.3437ZM8.99902 25.9062C9.77567 25.9062 10.4053 25.2766 10.4053 24.5C10.4053 23.7233 9.77567 23.0937 8.99902 23.0937V25.9062ZM5.99902 23.0937C5.22237 23.0937 4.59277 23.7233 4.59277 24.5C4.59277 25.2766 5.22237 25.9062 5.99902 25.9062V23.0937ZM8.99902 32.0312C9.77567 32.0312 10.4053 31.4016 10.4053 30.625C10.4053 29.8483 9.77567 29.2187 8.99902 29.2187V32.0312ZM7.99902 29.2187C7.22237 29.2187 6.59277 29.8483 6.59277 30.625C6.59277 31.4016 7.22237 32.0312 7.99902 32.0312V29.2187ZM8.99902 19.7812C9.77567 19.7812 10.4053 19.1516 10.4053 18.375C10.4053 17.5983 9.77567 16.9687 8.99902 16.9687V19.7812ZM3.99902 16.9687C3.22237 16.9687 2.59277 17.5983 2.59277 18.375C2.59277 19.1516 3.22237 19.7812 3.99902 19.7812V16.9687ZM35.948 21.3509L42.948 29.2259L45.0501 27.3574L38.0501 19.4824L35.948 21.3509ZM42.5928 28.2917V36.75H45.4053V28.2917H42.5928ZM43.9988 35.3437L39.8283 35.3443L39.8287 38.1568L43.9992 38.1562L43.9988 35.3437ZM41.1575 36.2908C40.561 34.5668 38.9383 33.3021 36.999 33.3021V36.1146C37.6726 36.1146 38.2727 36.5548 38.4996 37.2104L41.1575 36.2908ZM36.999 33.3021C35.0597 33.3021 33.4371 34.5668 32.8406 36.2908L35.4985 37.2104C35.7253 36.5548 36.3255 36.1146 36.999 36.1146V33.3021ZM34.1697 35.3443L29.9992 35.3437L29.9988 38.1562L34.1693 38.1568L34.1697 35.3443ZM31.4053 36.75V20.4167H28.5928V36.75H31.4053ZM29.999 21.8229H36.999V19.0104H29.999V21.8229ZM1.99902 13.6562H29.999V10.8438H1.99902V13.6562ZM28.5928 12.25V36.75H31.4053V12.25H28.5928ZM29.999 35.3437L15.8285 35.3443L15.8286 38.1568L29.9991 38.1562L29.999 35.3437ZM17.1575 36.2908C16.561 34.5668 14.9383 33.3021 12.999 33.3021V36.1146C13.6726 36.1146 14.2727 36.5548 14.4996 37.2104L17.1575 36.2908ZM12.999 33.3021C11.0597 33.3021 9.43708 34.5668 8.84058 36.2908L11.4985 37.2104C11.7253 36.5548 12.3255 36.1146 12.999 36.1146V33.3021ZM10.1699 35.3443L7.99941 35.3437L7.99864 38.1562L10.1691 38.1568L10.1699 35.3443ZM36.999 36.1146C37.852 36.1146 38.5928 36.8286 38.5928 37.7708H41.4053C41.4053 35.3303 39.4597 33.3021 36.999 33.3021V36.1146ZM38.5928 37.7708C38.5928 38.713 37.852 39.4271 36.999 39.4271V42.2396C39.4597 42.2396 41.4053 40.2114 41.4053 37.7708H38.5928ZM36.999 39.4271C36.146 39.4271 35.4053 38.713 35.4053 37.7708H32.5928C32.5928 40.2114 34.5383 42.2396 36.999 42.2396V39.4271ZM35.4053 37.7708C35.4053 36.8286 36.146 36.1146 36.999 36.1146V33.3021C34.5383 33.3021 32.5928 35.3303 32.5928 37.7708H35.4053ZM12.999 36.1146C13.852 36.1146 14.5928 36.8286 14.5928 37.7708H17.4053C17.4053 35.3303 15.4597 33.3021 12.999 33.3021V36.1146ZM14.5928 37.7708C14.5928 38.713 13.852 39.4271 12.999 39.4271V42.2396C15.4597 42.2396 17.4053 40.2114 17.4053 37.7708H14.5928ZM12.999 39.4271C12.146 39.4271 11.4053 38.713 11.4053 37.7708H8.59277C8.59277 40.2114 10.5383 42.2396 12.999 42.2396V39.4271ZM11.4053 37.7708C11.4053 36.8286 12.146 36.1146 12.999 36.1146V33.3021C10.5383 33.3021 8.59277 35.3303 8.59277 37.7708H11.4053ZM8.99902 23.0937H5.99902V25.9062H8.99902V23.0937ZM8.99902 29.2187H7.99902V32.0312H8.99902V29.2187ZM8.99902 16.9687H3.99902V19.7812H8.99902V16.9687ZM32.8406 36.2908C32.6796 36.7561 32.5928 37.2548 32.5928 37.7708H35.4053C35.4053 37.5714 35.4386 37.3834 35.4985 37.2104L32.8406 36.2908ZM41.4053 37.7708C41.4053 37.2548 41.3185 36.7561 41.1575 36.2908L38.4996 37.2104C38.5594 37.3834 38.5928 37.5714 38.5928 37.7708H41.4053ZM8.84058 36.2908C8.67957 36.7561 8.59277 37.2548 8.59277 37.7708H11.4053C11.4053 37.5714 11.4386 37.3834 11.4985 37.2104L8.84058 36.2908ZM17.4053 37.7708C17.4053 37.2548 17.3185 36.7561 17.1575 36.2908L14.4996 37.2104C14.5594 37.3834 14.5928 37.5714 14.5928 37.7708H17.4053Z" fill="#FFCE00"/>
</svg>
