<svg width="12" height="13" viewBox="0 0 12 13" fill="none" xmlns="http://www.w3.org/2000/svg">
<path d="M6 6.49233C6.79565 6.49233 7.55871 6.15033 8.12132 5.54155C8.68393 4.93278 9 4.1071 9 3.24617C9 2.38523 8.68393 1.55956 8.12132 0.950781C7.55871 0.342006 6.79565 0 6 0C5.20435 0 4.44129 0.342006 3.87868 0.950781C3.31607 1.55956 3 2.38523 3 3.24617C3 4.1071 3.31607 4.93278 3.87868 5.54155C4.44129 6.15033 5.20435 6.49233 6 6.49233ZM8 3.24617C8 3.82013 7.78929 4.37058 7.41421 4.77643C7.03914 5.18228 6.53043 5.41028 6 5.41028C5.46957 5.41028 4.96086 5.18228 4.58579 4.77643C4.21071 4.37058 4 3.82013 4 3.24617C4 2.67221 4.21071 2.12176 4.58579 1.71591C4.96086 1.31006 5.46957 1.08206 6 1.08206C6.53043 1.08206 7.03914 1.31006 7.41421 1.71591C7.78929 2.12176 8 2.67221 8 3.24617ZM12 11.9026C12 12.9847 11 12.9847 11 12.9847H1C1 12.9847 0 12.9847 0 11.9026C0 10.8206 1 7.57439 6 7.57439C11 7.57439 12 10.8206 12 11.9026ZM11 11.8983C10.999 11.6321 10.846 10.8314 10.168 10.0977C9.516 9.39224 8.289 8.65645 6 8.65645C3.71 8.65645 2.484 9.39224 1.832 10.0977C1.154 10.8314 1.002 11.6321 1 11.8983H11Z" fill="#FED700"/>
</svg>
