<svg width="16" height="12" viewBox="0 0 16 12" fill="none" xmlns="http://www.w3.org/2000/svg">
<path fill-rule="evenodd" clip-rule="evenodd" d="M0 0H16V12H0V0Z" fill="#F7FCFF"/>
<path fill-rule="evenodd" clip-rule="evenodd" d="M0 7.33337V8.33337H16V7.33337H0Z" fill="#E31D1C"/>
<path fill-rule="evenodd" clip-rule="evenodd" d="M0 9.16663V10.1666H16V9.16663H0Z" fill="#E31D1C"/>
<path fill-rule="evenodd" clip-rule="evenodd" d="M0 3.66663V4.66663H16V3.66663H0Z" fill="#E31D1C"/>
<path fill-rule="evenodd" clip-rule="evenodd" d="M0 11V12H16V11H0Z" fill="#E31D1C"/>
<path fill-rule="evenodd" clip-rule="evenodd" d="M0 5.5V6.5H16V5.5H0Z" fill="#E31D1C"/>
<path fill-rule="evenodd" clip-rule="evenodd" d="M0 0V1H16V0H0Z" fill="#E31D1C"/>
<path fill-rule="evenodd" clip-rule="evenodd" d="M0 1.83337V2.83337H16V1.83337H0Z" fill="#E31D1C"/>
<rect width="10" height="6.5" fill="#2E42A5"/>
<path fill-rule="evenodd" clip-rule="evenodd" d="M0.860617 1.46935L0.497677 1.7238L0.62021 1.27099L0.297852 0.984035H0.718895L0.86011 0.614502L1.0257 0.984035H1.38462L1.10261 1.27099L1.21179 1.7238L0.860617 1.46935ZM2.86062 1.46935L2.49768 1.7238L2.62021 1.27099L2.29785 0.984035H2.7189L2.86011 0.614502L3.0257 0.984035H3.38462L3.10261 1.27099L3.21179 1.7238L2.86062 1.46935ZM4.49768 1.7238L4.86062 1.46935L5.21179 1.7238L5.10261 1.27099L5.38462 0.984035H5.0257L4.86011 0.614502L4.7189 0.984035H4.29785L4.62021 1.27099L4.49768 1.7238ZM6.86062 1.46935L6.49768 1.7238L6.62021 1.27099L6.29785 0.984035H6.7189L6.86011 0.614502L7.0257 0.984035H7.38462L7.10261 1.27099L7.21179 1.7238L6.86062 1.46935ZM0.497677 3.7238L0.860617 3.46935L1.21179 3.7238L1.10261 3.27099L1.38462 2.98404H1.0257L0.86011 2.6145L0.718895 2.98404H0.297852L0.62021 3.27099L0.497677 3.7238ZM2.86062 3.46935L2.49768 3.7238L2.62021 3.27099L2.29785 2.98404H2.7189L2.86011 2.6145L3.0257 2.98404H3.38462L3.10261 3.27099L3.21179 3.7238L2.86062 3.46935ZM4.49768 3.7238L4.86062 3.46935L5.21179 3.7238L5.10261 3.27099L5.38462 2.98404H5.0257L4.86011 2.6145L4.7189 2.98404H4.29785L4.62021 3.27099L4.49768 3.7238ZM6.86062 3.46935L6.49768 3.7238L6.62021 3.27099L6.29785 2.98404H6.7189L6.86011 2.6145L7.0257 2.98404H7.38462L7.10261 3.27099L7.21179 3.7238L6.86062 3.46935ZM0.497677 5.7238L0.860617 5.46935L1.21179 5.7238L1.10261 5.27099L1.38462 4.98404H1.0257L0.86011 4.6145L0.718895 4.98404H0.297852L0.62021 5.27099L0.497677 5.7238ZM2.86062 5.46935L2.49768 5.7238L2.62021 5.27099L2.29785 4.98404H2.7189L2.86011 4.6145L3.0257 4.98404H3.38462L3.10261 5.27099L3.21179 5.7238L2.86062 5.46935ZM4.49768 5.7238L4.86062 5.46935L5.21179 5.7238L5.10261 5.27099L5.38462 4.98404H5.0257L4.86011 4.6145L4.7189 4.98404H4.29785L4.62021 5.27099L4.49768 5.7238ZM6.86062 5.46935L6.49768 5.7238L6.62021 5.27099L6.29785 4.98404H6.7189L6.86011 4.6145L7.0257 4.98404H7.38462L7.10261 5.27099L7.21179 5.7238L6.86062 5.46935ZM8.49768 1.7238L8.86062 1.46935L9.21179 1.7238L9.10261 1.27099L9.38462 0.984035H9.0257L8.86011 0.614502L8.71889 0.984035H8.29785L8.62021 1.27099L8.49768 1.7238ZM8.86062 3.46935L8.49768 3.7238L8.62021 3.27099L8.29785 2.98404H8.71889L8.86011 2.6145L9.0257 2.98404H9.38462L9.10261 3.27099L9.21179 3.7238L8.86062 3.46935ZM8.49768 5.7238L8.86062 5.46935L9.21179 5.7238L9.10261 5.27099L9.38462 4.98404H9.0257L8.86011 4.6145L8.71889 4.98404H8.29785L8.62021 5.27099L8.49768 5.7238ZM1.86062 2.46935L1.49768 2.7238L1.62021 2.27099L1.29785 1.98404H1.7189L1.86011 1.6145L2.0257 1.98404H2.38462L2.10261 2.27099L2.21179 2.7238L1.86062 2.46935ZM3.49768 2.7238L3.86062 2.46935L4.21179 2.7238L4.10261 2.27099L4.38462 1.98404H4.0257L3.86011 1.6145L3.7189 1.98404H3.29785L3.62021 2.27099L3.49768 2.7238ZM5.86062 2.46935L5.49768 2.7238L5.62021 2.27099L5.29785 1.98404H5.7189L5.86011 1.6145L6.0257 1.98404H6.38462L6.10261 2.27099L6.21179 2.7238L5.86062 2.46935ZM1.49768 4.7238L1.86062 4.46935L2.21179 4.7238L2.10261 4.27099L2.38462 3.98404H2.0257L1.86011 3.6145L1.7189 3.98404H1.29785L1.62021 4.27099L1.49768 4.7238ZM3.86062 4.46935L3.49768 4.7238L3.62021 4.27099L3.29785 3.98404H3.7189L3.86011 3.6145L4.0257 3.98404H4.38462L4.10261 4.27099L4.21179 4.7238L3.86062 4.46935ZM5.49768 4.7238L5.86062 4.46935L6.21179 4.7238L6.10261 4.27099L6.38462 3.98404H6.0257L5.86011 3.6145L5.7189 3.98404H5.29785L5.62021 4.27099L5.49768 4.7238ZM7.86062 2.46935L7.49768 2.7238L7.62021 2.27099L7.29785 1.98404H7.7189L7.86011 1.6145L8.0257 1.98404H8.38462L8.10261 2.27099L8.21179 2.7238L7.86062 2.46935ZM7.49768 4.7238L7.86062 4.46935L8.21179 4.7238L8.10261 4.27099L8.38462 3.98404H8.0257L7.86011 3.6145L7.7189 3.98404H7.29785L7.62021 4.27099L7.49768 4.7238Z" fill="#F7FCFF"/>
</svg>
