<svg width="14" height="18" viewBox="0 0 14 18" fill="none" xmlns="http://www.w3.org/2000/svg">
<path d="M2.79436 1.81972C3.29014 1.95493 3.78591 2.04507 4.28169 2.18028C4.77746 2.31549 5.27324 2.40563 5.76901 2.54084C5.90422 2.58591 5.94929 2.54084 5.99436 2.40563C6.17464 1.63944 6.35493 0.918309 6.53521 0.152113C6.58028 0.0169015 6.62535 -0.028169 6.76056 0.0169014C7.21126 0.152113 7.6169 0.242253 8.0676 0.332394C8.20281 0.377464 8.20281 0.422535 8.15774 0.512676C7.97746 1.2338 7.79718 2 7.6169 2.72112C7.6169 2.7662 7.6169 2.81127 7.57183 2.90141C7.93239 2.99155 8.33802 3.08169 8.69859 3.17183C8.74366 3.17183 8.78873 3.08169 8.8338 3.03662C8.96901 2.4507 9.10422 1.90986 9.2845 1.32394C9.32957 1.14366 9.37464 0.963379 9.41971 0.783098C9.41971 0.692957 9.46478 0.647887 9.55492 0.692957C10.0056 0.828169 10.4563 0.918309 10.9521 1.05352C10.9972 1.05352 10.9972 1.09859 11.0422 1.09859C10.907 1.68451 10.7718 2.22535 10.6366 2.7662C10.5915 2.99155 10.5465 3.2169 10.4563 3.44225C10.4113 3.57746 10.4563 3.62253 10.5915 3.6676C11.0873 3.89295 11.5831 4.11831 12.0789 4.34366C12.5296 4.61408 12.9352 4.97464 13.2507 5.42535C13.6563 6.1014 13.7014 6.82253 13.5211 7.54366C13.3859 8.03943 13.2056 8.49013 12.8451 8.8507C12.5746 9.12112 12.2141 9.3014 11.8535 9.43661C11.8084 9.43661 11.7634 9.48168 11.6732 9.48168C11.8535 9.6169 12.0338 9.70704 12.2141 9.84225C12.7549 10.2479 13.1155 10.7437 13.2958 11.3746C13.3859 11.8704 13.3408 12.4113 13.2056 12.907C13.0253 13.538 12.8 14.0789 12.3944 14.5746C11.8986 15.1606 11.2676 15.476 10.5465 15.5662C9.59999 15.7014 8.69859 15.6113 7.79718 15.476C7.66197 15.431 7.57183 15.476 7.52676 15.6113C7.34647 16.3324 7.16619 17.0986 6.98591 17.8197C6.94084 18 6.94084 18.0451 6.71549 17.9549C6.30985 17.8648 5.85915 17.7296 5.45352 17.6394C5.31831 17.5944 5.31831 17.5493 5.36338 17.4591C5.54366 16.6929 5.72394 15.9267 5.94929 15.2056C5.94929 15.1155 5.99436 15.0704 5.90422 15.0253C5.54366 14.9352 5.1831 14.8451 4.77746 14.7549C4.68732 15.1606 4.55211 15.5662 4.46197 15.9718C4.37183 16.3775 4.23662 16.7831 4.14648 17.1887C4.10141 17.2789 4.10141 17.3239 3.9662 17.2789C3.51549 17.1436 3.06479 17.0535 2.61408 16.9634C2.47887 16.9183 2.47887 16.8732 2.52394 16.7831C2.70422 16.0169 2.8845 15.2507 3.10986 14.5296C3.10986 14.4845 3.15493 14.4394 3.15493 14.3493C2.11831 14.0789 1.08169 13.8084 0 13.538C0.0901408 13.3577 0.135211 13.2225 0.225352 13.0422C0.405634 12.6366 0.585915 12.231 0.721127 11.8704C0.766197 11.7352 0.811267 11.7352 0.946479 11.7352C1.26197 11.8253 1.62253 11.9155 1.93803 11.9606C2.29859 12.0507 2.56901 11.8704 2.61408 11.5549C3.2 9.25633 3.78591 6.95774 4.32676 4.61408C4.4169 4.25352 4.19155 3.84788 3.78591 3.71267C3.38028 3.57746 2.97465 3.48732 2.61408 3.39718C2.52394 3.39718 2.47887 3.35211 2.52394 3.26197C2.65915 2.7662 2.79436 2.22535 2.92958 1.72958C2.74929 1.86479 2.74929 1.86479 2.79436 1.81972ZM5.09295 12.9521C5.13803 12.9521 5.18309 12.9972 5.18309 12.9972C5.90422 13.1775 6.67042 13.4028 7.43661 13.4479C7.97746 13.4929 8.47323 13.4929 8.96901 13.3127C9.82534 13.0422 10.1859 11.9155 9.69013 11.1944C9.46478 10.8338 9.10422 10.6084 8.74366 10.3831C7.93239 9.93239 6.98591 9.75211 6.0845 9.57183C5.94929 9.52675 5.94929 9.57182 5.90422 9.70704C5.81408 10.1577 5.67887 10.5634 5.58873 11.0141C5.40845 11.6451 5.27324 12.276 5.09295 12.9521ZM8.87887 8.35492C8.96901 8.35492 9.19436 8.30985 9.37464 8.26478C10.231 8.0845 10.6817 7.09295 10.231 6.32676C10.0056 5.92112 9.59999 5.6507 9.19436 5.47042C8.56337 5.2 7.93239 5.06479 7.25633 4.8845C7.12112 4.83943 7.07605 4.8845 7.03098 5.01971C6.80563 5.96619 6.58028 6.8676 6.30985 7.81408C6.26478 7.90422 6.30986 7.94929 6.4 7.99436C6.58028 8.03943 6.71549 8.0845 6.89577 8.12957C7.57183 8.21971 8.15774 8.35492 8.87887 8.35492Z" fill="white"/>
</svg>
