<svg width="50" height="50" viewBox="0 0 50 50" fill="none" xmlns="http://www.w3.org/2000/svg">
<path fill-rule="evenodd" clip-rule="evenodd" d="M20.1564 12.5001C20.1564 9.82499 22.325 7.65637 25.0001 7.65637C27.6753 7.65637 29.8439 9.82499 29.8439 12.5001V13.1772H20.1564V12.5001ZM17.3439 15.9897V18.7501C17.3439 19.5268 17.9735 20.1564 18.7501 20.1564C19.5268 20.1564 20.1564 19.5268 20.1564 18.7501V15.9897H29.8439V18.7501C29.8439 19.5268 30.4735 20.1564 31.2501 20.1564C32.0268 20.1564 32.6564 19.5268 32.6564 18.7501V15.9897H36.1981L38.0651 40.2606H11.9356L13.8026 15.9897H17.3439ZM17.3439 13.1772V12.5001C17.3439 8.27169 20.7717 4.84387 25.0001 4.84387C29.2286 4.84387 32.6564 8.27169 32.6564 12.5001V13.1772H37.5003C38.2351 13.1772 38.8461 13.743 38.9024 14.4756L40.9858 41.559C41.0158 41.9495 40.8816 42.3349 40.6155 42.6223C40.3493 42.9097 39.9754 43.0731 39.5837 43.0731H10.417C10.0253 43.0731 9.65134 42.9097 9.3852 42.6223C9.11906 42.3349 8.98485 41.9495 9.01489 41.559L11.0982 14.4756C11.1546 13.743 11.7655 13.1772 12.5003 13.1772H17.3439Z" fill="#FED700"/>
</svg>
