<svg width="14" height="15" viewBox="0 0 14 15" fill="none" xmlns="http://www.w3.org/2000/svg">
<path d="M6.24843 12.0851C8.82384 12.1337 11.3521 12.1809 13.9275 12.2768C13.8331 12.6589 13.7374 12.9924 13.6902 13.3272C13.5459 13.8051 13.403 14.2358 13.3086 14.7138C13.26 14.9528 13.1643 15 12.927 15H0.620264C1.05042 13.3272 1.4792 11.7516 1.90797 10.0788C1.24053 10.3177 0.667443 10.5567 0 10.8429C0.191491 10.1274 0.381594 9.50631 0.620264 8.83664C0.620264 8.74213 0.763188 8.69352 0.858934 8.69352C1.28909 8.50316 1.76505 8.35869 2.19382 8.16697C2.33674 8.12107 2.48106 7.97795 2.48106 7.83349L4.482 0.382088C4.53056 0.0958596 4.62492 0 4.95934 0H9.2998C8.77528 1.9577 8.29794 3.91809 7.77342 5.97165C8.53661 5.63817 9.25262 5.35059 10.063 5.06436C9.96724 5.44645 9.82431 5.77993 9.77713 6.11477C9.68139 6.88029 9.25262 7.30964 8.48943 7.50135C8.1564 7.59586 7.8206 7.73898 7.48757 7.88344C7.36928 7.95421 7.27103 8.0526 7.20172 8.16967C6.86731 9.45905 6.53289 10.7012 6.24704 11.9906V12.0864L6.24843 12.0851Z" fill="white"/>
</svg>
