<svg width="70" height="70" viewBox="0 0 70 70" fill="none" xmlns="http://www.w3.org/2000/svg">
<path d="M40.4247 54.2767V60.8141L34.7254 64.1666L29.1938 60.8141V54.2767L34.7254 57.6292L40.4247 54.2767ZM9.91699 31.6474L15.4486 34.9999V46.2308L25.0032 51.93V58.4674L9.91699 49.5833V31.6474ZM59.5339 31.6474V49.5833L44.28 58.4674V51.93L53.8346 46.2308V34.9999L59.5339 31.6474ZM44.28 22.7633L49.9793 26.1158V32.6532L40.4247 38.3524V49.7509L34.893 53.1034L29.3614 49.7509V38.3524L19.4716 32.6532V26.1158L25.1708 22.7633L34.7254 28.4626L44.28 22.7633ZM19.4716 37.3467L25.0032 40.6992V47.2365L19.4716 43.884V37.3467ZM49.9793 37.3467V43.884L44.4476 47.2365V40.6992L49.9793 37.3467ZM15.4486 17.0641L21.1478 20.4166L15.4486 23.7691V30.3064L9.91699 26.9539V20.4166L15.4486 17.0641ZM54.0022 17.0641L59.7015 20.4166V26.9539L54.0022 30.3064V23.7691L48.4706 20.4166L54.0022 17.0641ZM34.7254 17.0641L40.4247 20.4166L34.7254 23.7691L29.1938 20.4166L34.7254 17.0641ZM34.7254 5.83325L49.9793 14.7174L44.4476 18.0698L34.893 12.3706L25.1708 18.0698L19.6392 14.7174L34.7254 5.83325Z" fill="#F3BA2F"/>
</svg>
