<svg width="10" height="7" viewBox="0 0 10 7" fill="none" xmlns="http://www.w3.org/2000/svg">
<path fill-rule="evenodd" clip-rule="evenodd" d="M9.87228 0.128503C9.91277 0.169134 9.94489 0.217402 9.9668 0.270542C9.98872 0.323682 10 0.380651 10 0.438184C10 0.495718 9.98872 0.552686 9.9668 0.605826C9.94489 0.658966 9.91277 0.707234 9.87228 0.747865L3.78613 6.8715C3.74575 6.91223 3.69778 6.94455 3.64496 6.9666C3.59215 6.98865 3.53553 7 3.47835 7C3.42117 7 3.36455 6.98865 3.31173 6.9666C3.25892 6.94455 3.21095 6.91223 3.17056 6.8715L0.127489 3.80968C0.045859 3.72755 0 3.61615 0 3.5C0 3.38385 0.045859 3.27245 0.127489 3.19032C0.209118 3.10819 0.319832 3.06205 0.435274 3.06205C0.550716 3.06205 0.66143 3.10819 0.743059 3.19032L3.47835 5.94333L9.25671 0.128503C9.29709 0.0877696 9.34507 0.0554519 9.39788 0.0334012C9.4507 0.0113505 9.50732 0 9.5645 0C9.62168 0 9.6783 0.0113505 9.73111 0.0334012C9.78393 0.0554519 9.8319 0.0877696 9.87228 0.128503Z" fill="#242424"/>
</svg>
