<svg width="22" height="19" viewBox="0 0 22 19" fill="none" xmlns="http://www.w3.org/2000/svg">
<path d="M21.8602 9.13046C21.6636 8.89827 16.9808 3.44507 10.9999 3.44507C5.01902 3.44507 0.33593 8.89827 0.139606 9.13024C-0.0465352 9.35052 -0.0465352 9.64929 0.139606 9.86957C0.33593 10.1018 5.01902 15.555 10.9999 15.555C16.9808 15.555 21.6636 10.1017 21.8602 9.86975C22.0466 9.64951 22.0466 9.35052 21.8602 9.13046ZM10.9999 14.3022C6.59434 14.3022 2.77867 10.6828 1.64914 9.49959C2.7772 8.31531 6.58489 4.69781 10.9999 4.69781C15.4052 4.69781 19.2206 8.31657 20.3506 9.50044C19.2226 10.6847 15.4149 14.3022 10.9999 14.3022Z" fill="#8E8E8E"/>
<path d="M11.0001 5.74176C8.60064 5.74176 6.64844 7.42775 6.64844 9.50002C6.64844 11.5723 8.60064 13.2583 11.0001 13.2583C13.3996 13.2583 15.3518 11.5723 15.3518 9.50002C15.3518 7.42775 13.3996 5.74176 11.0001 5.74176ZM11.0001 12.0055C9.40038 12.0055 8.09902 10.8816 8.09902 9.50002C8.09902 8.11847 9.40042 6.99454 11.0001 6.99454C12.5998 6.99454 13.9012 8.11847 13.9012 9.50002C13.9012 10.8816 12.5998 12.0055 11.0001 12.0055Z" fill="#8E8E8E"/>
</svg>
