<svg width="43" height="43" viewBox="0 0 43 43" fill="none" xmlns="http://www.w3.org/2000/svg">
<path d="M21.5 5.375L21.8354 4.70418L21.5 4.53647L21.1646 4.70418L21.5 5.375ZM37.625 13.4375H38.375V12.974L37.9604 12.7667L37.625 13.4375ZM37.625 29.5625L37.9604 30.2333L38.375 30.026V29.5625H37.625ZM21.5 37.625L21.1646 38.2958L21.5 38.4635L21.8354 38.2958L21.5 37.625ZM5.375 29.5625H4.625V30.026L5.03959 30.2333L5.375 29.5625ZM5.375 13.4375L5.03959 12.7667L4.625 12.974V13.4375H5.375ZM29.7083 23.2917C29.7083 23.7059 30.0441 24.0417 30.4583 24.0417C30.8725 24.0417 31.2083 23.7059 31.2083 23.2917H29.7083ZM30.4583 17.0208H31.2083V16.5573L30.7937 16.35L30.4583 17.0208ZM14.6687 8.28751C14.2983 8.10227 13.8478 8.25244 13.6625 8.62292C13.4773 8.99341 13.6274 9.44391 13.9979 9.62915L14.6687 8.28751ZM20.75 36.7292C20.75 37.1434 21.0858 37.4792 21.5 37.4792C21.9142 37.4792 22.25 37.1434 22.25 36.7292H20.75ZM21.1646 6.04582L37.2896 14.1083L37.9604 12.7667L21.8354 4.70418L21.1646 6.04582ZM36.875 13.4375V29.5625H38.375V13.4375H36.875ZM37.2896 28.8917L21.1646 36.9542L21.8354 38.2958L37.9604 30.2333L37.2896 28.8917ZM21.8354 36.9542L5.71041 28.8917L5.03959 30.2333L21.1646 38.2958L21.8354 36.9542ZM6.125 29.5625V13.4375H4.625V29.5625H6.125ZM5.71041 14.1083L21.8354 6.04582L21.1646 4.70418L5.03959 12.7667L5.71041 14.1083ZM37.2896 12.7667L21.1646 20.8292L21.8354 22.1708L37.9604 14.1083L37.2896 12.7667ZM21.8354 20.8292L5.71041 12.7667L5.03959 14.1083L21.1646 22.1708L21.8354 20.8292ZM31.2083 23.2917V17.0208H29.7083V23.2917H31.2083ZM30.7937 16.35L14.6687 8.28751L13.9979 9.62915L30.1229 17.6917L30.7937 16.35ZM22.25 36.7292V21.5H20.75V36.7292H22.25Z" fill="black"/>
</svg>
