<svg width="26" height="26" viewBox="0 0 26 26" fill="none" xmlns="http://www.w3.org/2000/svg">
<rect width="26" height="26" rx="13" fill="white"/>
<path d="M7.02539 13.9011C9.22353 15.0685 11.5172 16.2904 13.2888 17.2359L19.5009 13.9011C17.2516 17.2427 15.3775 20.0246 13.2888 23.1034C11.1964 20.0314 8.88565 16.6416 7.02539 13.9011ZM7.26431 12.9794L13.2956 9.76108L19.2484 12.9559L13.299 16.1778L7.26431 12.9794ZM13.2888 8.72997L7.02539 12.0272L13.2615 2.8967L19.5009 12.0477L13.2888 8.72997Z" fill="#3AB83A"/>
<path d="M13.289 17.2359L19.5013 13.9011C17.2519 17.2427 13.289 23.1033 13.289 23.1033V17.2359ZM13.2958 9.76105L19.2487 12.9559L13.2992 16.1778L13.2958 9.76105ZM13.289 8.73018L13.2617 2.89667L19.5013 12.0476L13.289 8.73018Z" fill="#0B8311"/>
<path d="M7.26367 12.9794L13.2953 13.4744L19.248 12.959L13.2983 16.1811L7.26367 12.9794Z" fill="#0B8311"/>
<path d="M13.2949 13.4744L19.2478 12.959L13.2983 16.1811L13.2949 13.4744Z" fill="#146714"/>
</svg>
