<svg width="48" height="48" viewBox="0 0 48 48" fill="none" xmlns="http://www.w3.org/2000/svg">
<path fill-rule="evenodd" clip-rule="evenodd" d="M19.4052 12C19.4052 9.46294 21.4618 7.40625 23.9989 7.40625C26.536 7.40625 28.5927 9.46294 28.5927 12V12.5939H19.4052V12ZM16.5927 15.4064V18C16.5927 18.7767 17.2223 19.4062 17.9989 19.4062C18.7756 19.4062 19.4052 18.7767 19.4052 18V15.4064H28.5927V18C28.5927 18.7767 29.2223 19.4062 29.9989 19.4062C30.7756 19.4062 31.4052 18.7767 31.4052 18V15.4064H34.6968L36.4804 38.5939H11.5176L13.3013 15.4064H16.5927ZM16.5927 12.5939V12C16.5927 7.90964 19.9085 4.59375 23.9989 4.59375C28.0893 4.59375 31.4052 7.90964 31.4052 12V12.5939H35.999C36.7338 12.5939 37.3448 13.1596 37.4011 13.8923L39.4011 39.8923C39.4312 40.2828 39.297 40.6682 39.0308 40.9556C38.7647 41.243 38.3907 41.4064 37.999 41.4064H9.99903C9.60732 41.4064 9.23337 41.243 8.96723 40.9556C8.70109 40.6682 8.56688 40.2828 8.59692 39.8923L10.5969 13.8923C10.6533 13.1596 11.2642 12.5939 11.999 12.5939H16.5927Z" fill="#FFCE00"/>
</svg>
