<svg width="70" height="70" viewBox="0 0 70 70" fill="none" xmlns="http://www.w3.org/2000/svg">
<path d="M34.9997 64.1666C51.108 64.1666 64.1663 51.1082 64.1663 34.9999C64.1663 18.8916 51.108 5.83325 34.9997 5.83325C18.8914 5.83325 5.83301 18.8916 5.83301 34.9999C5.83301 51.1082 18.8914 64.1666 34.9997 64.1666Z" fill="#988430"/>
<path d="M35 63.2324C50.5923 63.2324 63.2324 50.5923 63.2324 35C63.2324 19.4077 50.5923 6.76758 35 6.76758C19.4077 6.76758 6.76758 19.4077 6.76758 35C6.76758 50.5923 19.4077 63.2324 35 63.2324Z" fill="#7A6A2A"/>
<path d="M34.9999 62.6374C50.2637 62.6374 62.6374 50.2637 62.6374 34.9999C62.6374 19.7361 50.2637 7.3623 34.9999 7.3623C19.7361 7.3623 7.3623 19.7361 7.3623 34.9999C7.3623 50.2637 19.7361 62.6374 34.9999 62.6374Z" fill="#BA9F33"/>
<path fill-rule="evenodd" clip-rule="evenodd" d="M18.5849 31.8851C18.4197 31.7342 18.2451 31.583 18.0846 31.4321C17.9241 31.2812 17.7592 31.13 17.594 30.9791L17.1031 30.5125C17.0228 30.4322 16.9379 30.3616 16.8576 30.281C16.7773 30.2104 16.6831 30.1301 16.6028 30.0592C15.9513 29.441 15.2961 28.8228 14.6537 28.2043C15.3191 28.8132 15.9706 29.4177 16.6361 30.0355L16.8672 30.267C16.9475 30.347 17.0324 30.4179 17.1127 30.4982L17.6033 30.9511C17.7685 31.102 17.9291 31.2532 18.0943 31.4178C18.2595 31.5824 18.42 31.7339 18.5852 31.8845L18.5849 31.8851ZM9.93879 31.7918C9.93879 31.7918 12.3079 32.0369 13.4643 32.2021C14.5355 32.3533 17.8864 32.8676 17.8864 32.8676L9.93879 31.7918ZM9.93879 31.7918C10.6043 31.8484 11.2697 31.919 11.9352 31.9899C12.2749 32.0229 12.6007 32.0606 12.9264 32.0935L13.4263 32.1505C13.5915 32.1738 13.7521 32.1975 13.9173 32.2211L15.8997 32.5372L16.8906 32.7024C17.2163 32.759 17.542 32.8206 17.8818 32.8772C17.556 32.8443 17.2163 32.797 16.8906 32.7497L15.8997 32.6081L13.9173 32.3157C13.7521 32.292 13.5915 32.2587 13.4263 32.2354L12.9261 32.1779C12.6003 32.1449 12.2606 32.0976 11.9349 32.0596C11.2694 31.9797 10.6039 31.8944 9.93848 31.7908L9.93879 31.7918ZM17.6506 33.4848C17.6506 33.4848 15.121 34.127 14.2667 34.3724C13.4267 34.6036 10.8827 35.3776 10.8827 35.3776L17.6503 33.4851L17.6506 33.4848Z" fill="#CFB66C"/>
<path fill-rule="evenodd" clip-rule="evenodd" d="M17.651 33.4849C17.0894 33.6501 16.531 33.8106 15.9613 33.9618L14.2717 34.4148C13.7101 34.58 13.1517 34.7406 12.5917 34.9058L11.7517 35.1369C11.4732 35.2172 11.1901 35.2878 10.9023 35.3684C11.1805 35.2751 11.4639 35.1796 11.7423 35.0993L12.5823 34.8305C13.1439 34.6556 13.7023 34.4904 14.2623 34.3159C14.8332 34.1743 15.3951 34.0231 15.966 33.8862C16.5086 33.7493 17.0798 33.6127 17.651 33.4852V33.4849ZM11.2374 36.9352C11.5155 36.8313 14.725 35.3354 15.4707 34.986C15.844 34.8112 16.9292 34.426 16.9292 34.426L11.2374 36.9352Z" fill="#CFB66C"/>
<path fill-rule="evenodd" clip-rule="evenodd" d="M11.2376 36.935C11.4828 36.8417 11.7142 36.7275 11.9501 36.6189L12.6485 36.2932L14.0504 35.6184C14.517 35.3965 14.9706 35.1517 15.4519 34.9433C15.6974 34.8397 15.9429 34.7547 16.188 34.6745L16.5613 34.5565C16.6886 34.5236 16.8068 34.4856 16.9347 34.4526C16.468 34.6745 15.9768 34.8633 15.5095 35.0801C15.0428 35.3116 14.5656 35.5005 14.084 35.708L12.6588 36.3355C12.1803 36.5293 11.7136 36.7368 11.2373 36.935H11.2376ZM11.5487 38.2417C11.5487 38.2417 14.4557 36.538 15.4563 35.9905C15.9802 35.698 17.6745 34.8577 17.6745 34.8577L11.5487 38.2417Z" fill="#CFB66C"/>
<path fill-rule="evenodd" clip-rule="evenodd" d="M11.5488 38.2422C12.0394 37.9401 12.5397 37.6333 13.04 37.3219L13.7866 36.8686C14.0414 36.7177 14.2869 36.5762 14.5467 36.4253C14.8015 36.2741 15.0469 36.1232 15.3064 35.9816C15.4299 35.9054 15.5593 35.8391 15.6934 35.7835L16.0898 35.5853C16.6137 35.3305 17.1376 35.0707 17.6898 34.8489C17.1896 35.1653 16.675 35.4344 16.1607 35.7125C15.9059 35.8541 15.6461 35.9816 15.3913 36.1232C15.1365 36.2647 14.8911 36.4159 14.6313 36.5528C14.3765 36.7037 14.131 36.8453 13.8716 36.9822L13.1022 37.4022L11.5495 38.2422H11.5488ZM17.6509 35.2309C17.6509 35.2309 15.8434 36.6185 15.2582 37.0621C14.673 37.5058 12.9504 38.7518 12.9504 38.7518L17.6509 35.2309Z" fill="#CFB66C"/>
<path fill-rule="evenodd" clip-rule="evenodd" d="M28.0245 46.4212L27.0996 44.6702L27.6375 42.4803L31.4745 40.9985L29.8414 37.6478L30.6485 34.2639L32.1636 31.2337L36.8455 30.4976L40.2858 27.2175L47.7146 27.7791L49.1728 35.7221L46.3647 45.7227L44.7649 50.9002L38.2801 51.1457L35.2691 49.0597L31.7436 47.5869L28.0245 46.4212Z" fill="#E2CC85"/>
<path fill-rule="evenodd" clip-rule="evenodd" d="M39.3986 46.3645C39.3986 46.3645 38.5017 46.7751 36.972 46.6805C36.5293 46.086 33.4288 45.8076 33.4288 45.8076C33.4288 45.8076 33.0417 45.6897 32.3573 45.9728C31.6685 46.2528 31.017 46.2182 30.4082 46.3691C29.7994 46.52 29.1949 45.7273 28.7282 45.5621C28.2615 45.3876 27.6427 44.9676 27.6427 44.9676L26.3361 44.84L23.7122 43.7309L19.5436 39.5779L18.4109 41.3512L18.0615 43.5458L19.3218 46.1464L22.7151 49.2376L29.3318 50.9176L33.2536 49.7621L38.1666 47.6854L39.3986 46.3641V46.3645Z" fill="#F1D789"/>
<path fill-rule="evenodd" clip-rule="evenodd" d="M15.8904 31.6869L16.7305 29.1432L17.7313 27.5006L20.9545 27.2314L19.9869 30.0538L17.2923 34.849L18.4108 39.1296L16.4287 40.1205L15.8195 39.1862L15.3289 37.0436L15.2959 34.6365L15.8904 31.6869Z" fill="#F4ECB4"/>
<path fill-rule="evenodd" clip-rule="evenodd" d="M19.5056 46.19L18.8874 45.3264C18.8874 45.3264 18.7222 44.9157 18.8168 44.557C18.9101 44.1936 18.8967 44.17 18.8498 44.0331C18.8028 43.8962 18.4061 43.4242 18.4298 43.0182C18.4531 42.6076 18.3968 42.4707 18.6986 42.1452C19.0146 41.8292 18.9204 41.2816 18.9204 41.2816L19.331 41.5364L19.4244 41.3948C19.4244 41.3948 19.5753 41.5128 19.5753 41.6969C19.6082 41.4421 19.4714 40.2621 19.7828 39.9933C20.0942 39.7245 20.6464 41.2533 20.6464 41.2533L20.3067 39.0351L19.4334 36.7605L17.8806 34.6839L17.7873 32.3947V32.1965C17.7873 32.1965 17.0745 33.2916 16.8764 34.1565C16.7348 34.7511 17.0746 35.4732 17.0039 36.3275C16.947 37.1771 16.8764 37.1108 17.0839 37.4475C17.2914 37.7841 17.7966 38.4763 17.5985 38.9766C17.4239 39.4062 16.8291 39.1041 16.8291 39.1041C16.8291 39.1041 16.7112 39.4532 16.5506 39.5808C16.494 39.3732 16.4327 39.241 16.3195 39.1141C16.3098 39.1944 16.2865 39.3029 16.2865 39.3029C16.2865 39.3029 16.1826 38.9772 16.0787 38.5665C15.9374 38.0193 15.7862 37.2972 15.6493 36.9102C15.5927 37.132 15.4512 37.8068 15.4512 37.8068L15.5314 38.8453L15.9185 40.2705L16.2918 41.2038L16.6552 42.3459L16.971 43.1131L17.2258 43.6983L17.4476 45.0152L18.5187 46.1477L19.0899 46.4028L19.505 46.1903L19.5056 46.19Z" fill="#F3E19D"/>
<path fill-rule="evenodd" clip-rule="evenodd" d="M16.4514 29.6103C16.4514 29.6103 15.682 30.917 15.4605 32.2342C15.239 33.5515 15.0405 34.9434 15.1805 36.7366C15.3221 38.5445 15.5912 39.6533 15.8083 40.4463C16.1817 41.7632 17.1486 43.5944 17.1486 43.5944L17.1816 43.5235C17.0191 43.2154 16.8893 42.8911 16.7946 42.5559C16.667 42.0557 16.6197 41.4611 16.5018 41.192C16.3979 40.9232 16.2234 40.6918 16.1384 40.3614C16.0582 40.0453 16.0451 39.545 15.7987 39.1723C15.6948 39.0211 15.5672 38.6247 15.5296 38.2284C15.4823 37.6335 15.5532 36.9681 15.4966 36.4208C15.3927 35.5099 15.3221 34.8917 15.4163 34.4148C15.5106 33.9379 16.0019 32.5839 16.3039 31.5078C16.5021 30.8187 16.3839 30.2381 16.7473 29.6386C17.1107 29.0441 17.3328 28.5202 17.4128 28.1568C17.5061 27.8264 16.4502 29.6103 16.4502 29.6103H16.4514Z" fill="#F2E8B0"/>
<path fill-rule="evenodd" clip-rule="evenodd" d="M20.1008 29.0862C20.1008 29.0862 19.7044 29.2044 19.5156 29.4119C19.3267 29.6101 19.2465 29.7753 18.9916 30.1103C18.7368 30.4454 18.7225 30.7192 18.5147 31.1392C18.3072 31.5498 17.8492 32.168 17.7926 32.3898C17.736 32.6116 17.6417 33.6498 17.5238 34.1407C17.4199 34.6316 17.6417 35.2358 17.6417 35.2358L17.9105 35.1789C17.9105 35.1789 17.9105 35.5283 18.1796 35.7644C18.4484 35.9955 18.4957 34.9807 18.4957 34.9807L19.5009 31.5875L21.0158 30.5586L21.181 29.728L20.1002 29.0862H20.1008Z" fill="#F5EEC0"/>
<path fill-rule="evenodd" clip-rule="evenodd" d="M20.8361 30.6251C20.8361 30.6251 20.1233 30.6721 19.7743 30.9272C19.6327 31.0308 19.5761 31.1157 19.4252 31.2433C19.1468 31.4745 18.8634 31.6869 18.7268 31.99C18.5756 32.2917 18.4104 32.7497 18.2972 33.6133C18.2499 33.9767 18.2499 34.3118 18.2169 34.6045C18.1696 35.0009 18.099 35.317 18.1366 35.5379C18.1839 35.9909 18.6512 36.227 18.6966 36.7413L19.6642 36.2506L20.5751 32.6589L22.5101 31.4455L21.4151 30.2185L20.8348 30.623L20.8361 30.6251Z" fill="#E6DB9D"/>
<path fill-rule="evenodd" clip-rule="evenodd" d="M15.7318 54.8111C15.7358 54.7756 15.7398 54.7401 15.7439 54.7037C15.8851 53.4904 15.9091 52.5708 16.0127 51.9949C16.1636 51.1785 16.2675 50.8749 16.2438 50.5694C16.2109 50.0788 16.1732 49.72 16.2205 49.3424C16.2911 48.8421 16.7821 48.2476 16.7681 47.8369C16.7584 47.5112 16.5932 47.299 16.4517 47.1008C16.3101 46.9026 16.1969 46.7374 16.1969 46.7374C16.1969 46.7374 17.1644 46.072 17.1551 43.3911C17.1749 43.3967 17.1939 43.4046 17.2117 43.4148L17.6883 44.769L18.0141 45.1654L19.2648 47.4968L20.8742 49.0592L23.2526 50.659L24.7441 52.282L24.895 56.6099L22.9459 59.1396L22.6267 59.7176C20.0907 58.4445 17.7652 56.7896 15.7314 54.8108L15.7318 54.8111Z" fill="#E5CB7A"/>
<path fill-rule="evenodd" clip-rule="evenodd" d="M21.6855 58.9516C21.6855 58.9516 21.7185 58.4137 22.1622 58.0643C22.2331 58.1822 22.2801 58.2957 22.2661 58.3804C22.3463 58.2391 22.9079 57.3329 24.1775 57.0967C25.4472 56.8656 25.7539 55.9406 25.7539 55.9406L28.4485 53.4913L31.5303 50.6549L35.2777 49.3379L37.0289 48.9083C37.0289 48.9083 37.0619 49.0358 36.9959 49.3189C37.3213 49.2956 38.0434 49.1304 38.7938 48.866C39.0959 48.7481 39.3793 48.7008 39.5302 48.8566C39.752 49.0641 39.785 49.5551 39.799 49.8475C40.1624 49.7673 40.5824 49.4182 40.919 49.4512C41.4572 49.5078 41.9339 50.1403 42.4814 50.1403C43.2035 50.1403 43.5289 49.6966 44.0342 49.3473C44.3363 49.1397 44.7703 48.8806 45.0157 48.7054C45.6009 48.2758 51.793 46.3833 51.793 46.3833L53.9639 46.5249L54.3133 48.8563L54.1266 54.951C54.1036 54.9731 54.0805 54.9961 54.0572 55.0182L44.1863 60.1736L30.5037 62.2711C27.4387 61.7704 24.481 60.753 21.7565 59.2624L21.6865 58.9513L21.6855 58.9516Z" fill="#D8C173"/>
<path fill-rule="evenodd" clip-rule="evenodd" d="M16.5615 55.5866C16.756 55.1799 16.9308 54.8399 16.9616 54.7183C16.9859 54.9634 17.0304 55.5013 17.12 56.0731C16.9318 55.9132 16.7457 55.7509 16.5615 55.5863V55.5866Z" fill="#F1D789"/>
<path fill-rule="evenodd" clip-rule="evenodd" d="M26.5569 61.3222L28.3265 60.83L28.4774 60.8773C28.4774 60.8773 28.5576 60.9246 28.5576 61.0848C28.7795 60.9575 28.9683 60.9809 29.1052 60.8963C29.1758 61.0471 29.2464 61.5474 29.5582 61.6087C29.8836 61.6796 30.233 61.4671 30.587 61.1983C30.9361 60.9199 31.3337 60.5705 31.6345 60.429C31.7449 60.6319 31.8427 60.8415 31.9273 61.0565C32.3237 60.7404 33.0128 59.4567 33.9943 59.4801C34.278 58.8096 34.752 58.237 35.3576 57.833C36.2686 57.2149 36.8395 57.1676 37.5522 57.2242C37.8353 56.8565 38.1842 56.5444 38.5811 56.3039C38.699 56.3512 39.0247 56.5494 39.4307 56.3605C39.8414 56.172 40.3037 55.4403 40.9126 55.346C41.2406 55.3009 41.5742 55.3709 41.8565 55.5442C41.8565 55.5442 43.6298 53.7836 44.8534 53.1984C44.8061 53.0568 44.7119 52.5236 46.1464 51.3435C46.2267 51.4145 46.1701 51.6126 46.2267 51.6235C46.25 51.6235 46.6 51.4726 47.043 51.1326C47.5906 50.7222 48.2464 50.2926 48.6428 50.1747C49.3895 49.9529 50.1815 50.4058 50.1815 50.4058C50.2489 50.3586 50.324 50.3234 50.4034 50.3019C50.5919 50.2689 50.7288 50.2453 50.8327 50.2086C50.8234 50.4541 50.9603 50.8741 50.8327 51.2374C50.9805 51.3205 51.137 51.387 51.2994 51.4356C51.2194 51.6102 51.0446 52.0538 50.7521 52.2663C50.9973 52.3842 51.0303 52.5211 51.3796 52.6396C51.2381 52.8378 51.0063 53.1779 50.903 53.3863C50.7991 53.6081 50.4261 54.5284 50.2609 54.8775C50.0863 55.2268 49.8505 55.8687 49.737 55.9975C49.6234 56.1263 49.213 56.6723 48.897 56.9411C49.177 56.8372 50.3225 56.4881 50.8084 56.3559C50.6638 56.568 49.9305 57.656 49.2255 58.7023C45.8501 60.7254 42.0822 62.0059 38.173 62.4585C34.2638 62.9111 30.3031 62.5253 26.5547 61.3268L26.5569 61.3222Z" fill="#E0CD81"/>
<path fill-rule="evenodd" clip-rule="evenodd" d="M20.9526 30.4975C20.9526 30.4975 20.5422 30.4975 20.4619 30.5541C20.3817 30.6107 20.8726 30.729 21.0235 30.7856C21.1744 30.8422 21.5001 31.1017 21.5851 31.3095C21.6653 31.5077 24.5348 32.6638 24.5348 32.6638L26.5642 32.5598L27.2639 31.5932L25.933 30.4275L26.8663 27.676L25.6299 27.8742L22.6566 29.6475L21.1651 30.2187L20.9526 30.4975Z" fill="#DFC57C"/>
<path fill-rule="evenodd" clip-rule="evenodd" d="M25.4095 31.4084C25.4389 31.4559 25.4802 31.4948 25.5293 31.5213C25.5785 31.5478 25.6337 31.5609 25.6895 31.5593C26.1095 31.5593 26.4963 31.6632 26.6568 31.8753C26.9259 32.2154 27.6716 33.3009 27.6716 33.3009L29.4555 33.9427L29.5707 31.8421L27.6215 30.4878L25.4033 31.3042V31.4081H25.4083L25.4095 31.4084Z" fill="#E5CC7C"/>
<path fill-rule="evenodd" clip-rule="evenodd" d="M25.0593 32.187C25.0593 32.187 25.3847 32.2107 25.7954 32.0595C26.2061 31.9083 26.8809 31.5829 27.1736 31.7104C27.584 31.8849 27.499 32.4325 27.943 32.9237C28.2118 33.2258 28.7027 33.2165 28.9812 33.5422C29.2596 33.868 30.2175 33.7168 30.2175 33.7168L30.5809 35.6768L29.1227 37.5459L28.6458 39.8677H26.674L24.8726 39.1531L23.9854 37.0065L24.429 34.8355L25.0593 32.187Z" fill="#D2C281"/>
<path fill-rule="evenodd" clip-rule="evenodd" d="M28.8739 32.2813C28.9228 32.2964 28.9736 32.3043 29.0248 32.3049C28.9682 32.3522 28.85 32.4558 28.8972 32.7249C28.9445 32.994 29.0954 33.3338 28.9682 33.5413C29.0698 33.6523 29.1455 33.7845 29.19 33.9283C29.2703 34.1597 29.2939 34.3719 29.8175 34.4052C29.7419 34.4517 29.6723 34.5072 29.61 34.5704C29.61 34.5704 29.9734 34.8865 30.1576 35.1789C30.3461 35.1708 30.8464 35.0153 30.8464 35.0153L30.9503 35.0862L31.1721 34.9929C31.1721 34.9929 30.9646 34.9126 31.1155 34.4077C31.257 33.9641 31.3846 33.9877 31.3955 33.9547C31.4064 33.9217 31.4994 33.4545 31.4994 33.2656C31.57 33.0205 31.6266 32.2748 31.6266 32.2748L31.4757 30.6278L30.6264 30.1132L29.9357 29.4465L29.2843 30.6735L28.8552 31.1013L28.8223 32.1631L28.8739 32.2813Z" fill="#E2C270"/>
<path fill-rule="evenodd" clip-rule="evenodd" d="M30.917 30.9035C30.917 30.9035 31.0679 31.3328 31.1248 31.6632C31.1449 31.599 31.156 31.5323 31.1578 31.4651C31.1578 31.4651 31.2757 32.1165 31.299 32.3856C31.3463 32.376 31.3924 32.362 31.4029 32.409C31.4135 32.456 31.5212 32.9802 31.4963 33.2726C31.6928 32.9484 31.9648 32.6764 32.289 32.4799C32.4778 32.3617 32.6997 32.2344 32.9311 32.2248C33.2945 32.2155 33.5586 32.4563 33.9929 32.4563C35.0405 32.4563 35.9893 31.6869 36.6878 31.4511C37.2021 31.2762 37.6457 31.149 37.9571 30.8656C38.1083 30.7383 38.3774 30.4552 38.6226 30.0349C38.9483 29.4749 39.2881 28.9874 39.6281 28.9261C39.4743 28.9544 39.3177 28.9654 39.1614 28.9591C39.1614 28.9591 39.2653 28.8552 39.4414 28.7136C39.6175 28.572 39.8285 28.3975 40.1302 28.3975C40.6685 28.3975 40.9373 28.4775 41.2393 28.4775C41.5414 28.4681 41.716 28.3975 41.716 28.3975C41.716 28.3975 42.0324 28.6193 42.7448 28.6193C43.4576 28.6287 43.9342 28.69 44.3072 28.7232C44.6802 28.7565 45.9306 28.6193 46.2893 28.6299C46.5232 28.6389 46.7528 28.6951 46.9644 28.7951L45.808 25.4351L41.6541 21.8044L39.181 23.5554L35.3768 27.3593L31.6957 28.7232L30.9263 29.5869V30.9035H30.917Z" fill="#CCB360"/>
<path fill-rule="evenodd" clip-rule="evenodd" d="M39.1768 28.9776C39.1768 28.9776 39.2807 28.874 39.4549 28.7325C39.6292 28.5909 39.8423 28.4161 40.1441 28.4161C40.682 28.4161 40.9511 28.4963 41.2532 28.4963C41.5553 28.487 41.7298 28.4161 41.7298 28.4161C41.7298 28.4161 42.0465 28.6376 42.7587 28.6376C43.4715 28.6469 43.9481 28.7082 44.3211 28.7412C44.6941 28.7742 45.9445 28.6376 46.3032 28.6478C46.537 28.6566 46.7666 28.7129 46.978 28.813L46.4541 27.2979L45.8456 26.1418L44.1086 24.2397L42.0083 23.0034C41.9989 22.994 41.2862 22.8052 41.2862 22.8052L39.3983 23.9473L37.6853 28.379L37.6523 29.3124L38.7612 29.8363C39.0396 29.3696 39.3467 28.9963 39.6345 28.949C39.3747 28.9773 39.1765 28.9773 39.1765 28.9773L39.1768 28.9776Z" fill="#D5B457"/>
<path fill-rule="evenodd" clip-rule="evenodd" d="M39.1533 29.2941C38.9881 29.3034 38.8515 29.2704 38.8136 29.1525C38.672 28.7562 38.5588 28.6995 38.4403 28.6995C38.3217 28.6995 38.1618 28.9543 38.0669 28.9777C37.9721 29.001 37.8594 28.6852 37.8594 28.6852L37.7555 28.6379C37.7555 28.6379 37.1467 29.0343 36.7174 29.5016C36.2881 29.9689 35.5847 30.7619 35.2686 30.9031C34.9525 31.0444 33.8668 31.092 33.4953 31.1722C33.1238 31.2525 32.7119 31.5216 32.6553 31.5829C32.5987 31.6442 32.8208 31.7102 32.8538 31.7714C32.8868 31.8281 32.4901 31.8044 32.4571 31.8648C32.4338 31.9121 32.5505 32.1809 32.6083 32.3178C32.7096 32.2674 32.8207 32.24 32.9338 32.2375C33.2971 32.2282 33.5616 32.469 33.9955 32.469C35.0433 32.469 35.9919 31.6996 36.6903 31.4634C37.2049 31.2889 37.6485 31.1614 37.9599 30.8782C38.1108 30.751 38.3799 30.4676 38.6254 30.0476C38.8046 29.7598 38.9794 29.4907 39.1543 29.2925L39.1533 29.2941Z" fill="#D2B257"/>
<path fill-rule="evenodd" clip-rule="evenodd" d="M24.1265 52.6514C24.1265 52.6514 24.0332 52.302 23.1683 51.4007C22.9228 51.1459 22.772 50.934 22.6068 50.7825C22.1961 50.3952 21.9553 50.2916 21.6628 50.0697C21.021 49.5931 20.3226 49.5931 19.7846 49.0079C19.2467 48.4227 18.6198 47.3045 18.1843 46.1618C17.7549 45.0197 17.6367 44.6563 17.6367 44.6234C17.6367 44.5904 17.7549 44.3685 17.9058 44.4015C18.0567 44.4345 18.0567 44.727 18.0947 44.7979C18.1699 44.9137 18.2551 45.0226 18.3495 45.1233C18.5713 45.3784 18.8874 45.6833 19.0479 46.1382C19.015 45.7511 18.8827 45.3218 18.8827 45.3218C18.8827 45.3218 19.7134 45.8457 20.4212 46.393C21.1339 46.9405 21.4264 47.1294 21.6345 47.4785C21.8427 47.8275 22.333 48.7481 22.5679 49.0172C22.8028 49.2864 26.0212 50.3009 26.0212 50.3009L27.5522 51.4424L28.3123 53.1084L27.7174 54.0418L26.5753 54.2872L24.7205 53.4565L24.1265 52.6511V52.6514Z" fill="#D2B159"/>
<path fill-rule="evenodd" clip-rule="evenodd" d="M20.0059 46.9121C20.0059 46.9121 20.3929 47.5303 21.3368 48.1155C22.1864 48.6301 23.5313 49.0973 24.7304 49.3758C25.4192 49.541 26.1083 49.6682 26.7264 49.6779C28.3924 49.7012 29.5392 49.2249 30.96 49.069C31.7294 48.9888 32.6733 48.9275 33.6548 48.6957C34.9148 48.3936 35.6605 48.0536 36.6754 47.5757C37.4115 47.236 38.0866 46.9812 38.6338 46.6554C39.4032 46.2025 39.9647 45.6975 40.6162 45.5466C40.5359 45.7685 40.451 46.1648 39.8092 46.5755C40.1489 46.5658 40.6162 46.5425 40.6162 46.5425C40.6162 46.5425 40.1632 46.8113 39.3655 47.4155C38.8746 47.7888 38.2235 48.4207 37.558 48.8407C37.1284 49.1098 36.6611 49.3073 36.3543 49.4685C35.6077 49.8792 35.3065 50.0867 34.8159 50.5885C34.9904 50.5792 35.0047 50.5885 35.0047 50.5885C35.0047 50.5885 34.3862 50.6688 33.9429 50.9046C33.8496 50.9046 33.6878 50.8716 33.4047 50.9519C33.1829 51.0225 32.8901 51.1833 32.5883 51.268C32.1587 51.3955 32.0175 51.3389 32.0175 51.3389L32.0881 51.4805C32.0881 51.4805 31.5281 51.4708 31.3414 51.4898C31.3744 51.4991 31.3651 51.5134 31.3651 51.5134C31.3323 51.5189 31.3007 51.5301 31.2717 51.5464C31.1819 51.6046 31.0831 51.6476 30.9793 51.6737C30.9227 51.683 30.8754 51.683 30.8045 51.6973C30.8281 51.7539 31.0123 52.0706 31.0972 52.2573C31.0266 52.3046 29.9645 53.1069 29.9645 53.1069C29.9974 53.1588 30.0243 53.2142 30.0447 53.2721C30.0777 53.3757 30.092 53.5269 30.125 53.5976C30.2049 53.7391 30.2522 53.7628 30.2522 53.7628C30.2522 53.7628 30.125 53.7864 29.9029 53.843C29.7143 53.8903 29.4829 53.9703 29.1562 54.0176C29.056 54.0306 28.9551 54.0385 28.8541 54.0412C28.9014 54.1451 29.1089 54.5415 28.7266 54.9991C28.3442 55.4568 28.2263 55.5233 28.1084 55.8158C28.049 55.7709 27.9858 55.7313 27.9195 55.6976C27.7923 55.6409 27.6174 55.5563 27.5562 55.4428C27.5204 55.5941 27.4731 55.7424 27.4146 55.8864C27.2967 56.2025 27.1222 56.5142 27.0892 56.7501C26.9616 56.6085 26.7258 56.3301 26.4001 56.3867C26.0744 56.4433 25.8149 56.8869 25.7583 57.0145C25.7583 56.9342 25.7016 56.8729 25.6876 56.9672C25.678 57.0711 25.4988 58.1563 24.4983 59.0342C24.4889 58.8124 24.4889 58.3215 24.4653 58.1613C24.372 58.2546 24.2578 58.3924 23.578 58.6852C22.9126 58.9776 23.018 59.2704 23.018 59.2704C23.018 59.2704 22.9614 58.8037 23.3201 58.3121C23.6835 57.8215 23.9053 57.5901 23.9053 57.5524C23.8994 57.5141 23.8831 57.4781 23.858 57.4485C23.8107 57.4012 23.7165 57.3446 23.7165 57.3069C23.7731 57.2836 24.3346 57.0145 24.3017 56.4573C24.2687 55.9573 24.0565 55.6976 23.9053 55.5137C23.882 55.4901 24.1274 55.3155 24.0941 55.2589C24.0705 55.2259 23.7687 55.0038 23.7308 54.8856C23.7397 54.815 23.7555 54.7455 23.7781 54.6781C23.811 54.5741 23.8347 54.5032 23.8253 54.4326C23.8017 54.3147 23.6741 53.9889 23.6365 53.956C23.6695 53.9653 23.9053 53.956 23.9053 53.956C23.9053 53.956 23.7168 53.6539 23.6835 53.5123C23.6502 53.3708 23.5796 52.9977 23.5419 52.9271C23.6222 52.9365 23.8204 52.9505 23.8204 52.9271C23.83 52.8562 23.6458 52.7383 23.727 52.6471C23.7837 52.6565 23.8922 52.7037 23.9958 52.836C23.9392 52.6848 23.8449 52.3923 23.6465 52.2744C23.7398 52.2414 24.0571 52.1562 24.3356 52.3214C24.614 52.4866 24.7089 52.7177 24.7089 52.7177C24.7089 52.7177 24.8741 52.8453 25.1292 53.0341C25.4216 53.2653 25.7944 53.5941 26.3892 53.8269C26.5167 53.8978 26.8422 53.8978 27.0783 53.8505C27.1811 53.826 27.2797 53.7863 27.3707 53.7326C27.4036 53.7132 27.4384 53.6974 27.4747 53.6853C27.4239 53.5835 27.3656 53.4856 27.3001 53.3925C27.3804 53.3925 27.4747 53.4022 27.4747 53.4022C27.4747 53.4022 27.5313 53.2746 27.2765 53.0289C27.3331 52.9722 27.404 52.9355 27.404 52.84C27.3238 52.8307 27.1822 52.7128 27.1492 52.6655C27.1962 52.6325 27.2671 52.5239 27.3474 52.4909C27.2765 52.4343 27.1019 52.1982 27.0217 52.1749C27.0984 52.1464 27.1725 52.1116 27.2435 52.0709C27.2435 52.0709 26.8471 51.967 26.7196 51.8821C26.592 51.7888 26.4035 51.6273 26.2903 51.58C26.172 51.5327 25.9645 51.5094 25.8796 51.4148C25.9595 51.4385 26.0871 51.4148 26.1817 51.4148C26.2523 51.4148 26.2856 51.4241 26.3089 51.4241C26.2996 51.3912 26.2996 51.3202 26.4838 51.2969C26.5724 51.2835 26.6583 51.2565 26.7386 51.2166C26.7386 51.2166 26.5637 51.2073 26.3652 51.0185C26.1667 50.8296 26.0019 50.6787 25.8886 50.6551C25.7707 50.6314 25.5489 50.7353 25.412 50.7257C25.2232 50.7024 25.1429 50.6078 25.1429 50.6078C25.1429 50.6078 24.5154 50.6644 23.1232 49.8151C21.9195 49.0787 21.3956 48.4275 21.3956 48.4275C21.2829 48.3866 21.1741 48.336 21.0702 48.2763C20.6172 48.0405 19.9894 47.5496 20.0083 46.9074L20.0059 46.9121Z" fill="#C2A44D"/>
<path fill-rule="evenodd" clip-rule="evenodd" d="M37.3685 18.5852C37.4777 18.6207 37.5748 18.6861 37.6485 18.7741C37.8704 19.0289 38.0119 19.5102 37.507 20.0247C37.7052 20.0954 37.787 20.1181 37.96 20.0954C37.7854 20.3032 37.3891 20.7468 37.3654 21.1339C37.3418 21.4499 37.54 21.5445 37.54 21.5445C37.54 21.5445 37.2379 21.8936 37.2239 22.4779C37.3665 22.317 37.5227 22.1686 37.6905 22.0342C38.0399 21.7558 38.5212 21.4397 38.847 21.2415C38.8425 21.3246 38.8537 21.4077 38.8799 21.4867C38.8799 21.4867 39.4885 20.9864 40 21.2085C40.2311 21.3124 40.1272 21.6379 40.1272 21.6379C40.1272 21.6379 40.4436 21.5199 40.6654 21.7418C40.8873 21.9636 41.2009 22.5357 41.3617 22.7575C41.4323 22.8615 41.6165 23.0596 41.805 23.3664C42.0626 23.7959 42.2777 24.2494 42.4472 24.7207C42.4565 24.4752 42.5178 24.0931 43.2166 24.3336C43.915 24.5791 44.7077 25.0937 45.3732 26.107C46.0387 27.1203 46.2036 28.2642 46.5387 28.6998C46.8784 29.1198 47.2278 29.8182 47.2514 30.111C47.2751 30.4037 47.1475 31.3473 47.846 33.9006C48.0441 33.1079 48.3462 31.3473 48.3462 31.3473L48.5114 29.7946L48.7003 24.9901L43.6832 20.8221L39.7613 17.9761L37.208 18.2215L37.3682 18.5849L37.3685 18.5852Z" fill="#CAA13E"/>
<path fill-rule="evenodd" clip-rule="evenodd" d="M46.6907 25.7353C46.6907 25.7353 46.6198 25.2686 45.44 24.4753C44.26 23.6919 43.3397 23.6919 42.4904 23.0264C41.8389 22.5025 41.1595 21.2988 40.7171 20.9025C40.2874 20.5108 40.2168 19.378 40.2168 19.378L41.6656 18.1647L43.8204 15.0502L45.642 13.0444L46.5149 14.2578L47.7283 15.683L48.4031 18.543L48.6485 22.7293L46.6885 25.7356L46.6907 25.7353Z" fill="#B59544"/>
<path fill-rule="evenodd" clip-rule="evenodd" d="M48.1481 30.7534C48.1838 30.1185 48.1054 29.4824 47.9167 28.8752C47.6055 27.9076 46.9258 26.1897 46.61 25.5463C46.4824 24.8335 46.577 24.7769 46.7139 24.6966C46.8508 24.6164 47.3654 24.3233 47.6472 23.2951C47.9291 22.2669 48.8036 22.2333 48.8036 22.2333L49.3416 21.8369L50.1582 23.8803L50.8707 25.7258L51.0925 27.137L51.2577 28.3404L50.8707 30.8843L48.9595 32.6116L48.1478 30.7534H48.1481Z" fill="#C89D3A"/>
<path fill-rule="evenodd" clip-rule="evenodd" d="M21.4785 59.1077V59.0555C21.5182 59.0306 21.5533 58.999 21.5821 58.9621C21.6151 58.9148 21.639 58.8582 21.6624 58.8442C21.7097 58.8206 21.9315 58.7509 22.0494 58.7733C22.1673 58.7957 22.479 58.9242 22.6442 58.9148C22.984 58.9055 23.3803 58.6457 24.0082 58.7639C24.9521 58.9385 25.1739 59.5803 25.7215 59.9437C26.0948 60.1988 26.4812 60.0853 26.5378 60.0853H26.665C26.6887 60.0853 26.8632 59.8871 26.9578 59.8967C27.1467 59.906 27.1653 60.0619 27.2832 60.0713C27.5617 60.1042 28.0999 59.9297 28.369 60.0006C28.4488 60.0256 28.5214 60.0695 28.5805 60.1286C28.6397 60.1877 28.6837 60.2603 28.7087 60.3401C28.7654 60.5146 28.7181 60.7364 28.5812 60.864C28.2887 61.1328 28.0103 61.3879 27.9537 61.6107C28.0257 61.6656 28.0948 61.7241 28.1609 61.7861C25.8257 61.1912 23.579 60.2916 21.4785 59.1105V59.1077Z" fill="#CEB052"/>
<path fill-rule="evenodd" clip-rule="evenodd" d="M46.6094 49.6778C46.6094 49.6778 47.3455 48.6962 47.6006 48.2099C47.8554 47.7087 46.7935 41.3621 46.7935 41.3621L48.9268 34.3727L48.8699 32.0978C48.8699 32.0978 48.9738 29.9975 49.2193 29.0866C49.512 29.6105 50.4229 30.243 50.6211 30.578C50.7144 29.9359 51.0315 28.5816 50.9845 27.1375C51.159 27.4063 51.579 30.1107 51.579 30.1107L51.999 31.9323L52.5466 33.8674L53.1554 35.9111L53.5188 37.3223L53.7263 37.662L53.9011 38.2566L54.0663 38.8987L54.5429 40.4042L54.8229 41.6405L55.0448 43.8824C55.093 44.054 55.1278 44.2292 55.1487 44.4063C55.158 44.6518 55.1157 44.7933 55.1157 44.8359C55.1157 44.8786 55.196 45.3739 55.163 45.7469C55.1157 46.1202 55.1157 46.4123 54.8229 46.6802C54.5302 46.9481 54.3463 48.5491 54.3463 48.5491L53.8224 48.2C53.8224 48.2 53.9263 47.7231 53.6809 47.2891C53.4354 46.8551 52.9588 46.7651 52.6897 46.8361C52.4209 46.8927 51.883 46.9773 51.7081 47.1285C51.5429 47.2794 51.1372 47.7467 50.7642 47.9592C50.2976 48.2392 49.5372 48.2613 49.1315 48.3555C48.7209 48.4489 48.2679 48.7289 47.791 49.054C47.417 49.2961 47.0222 49.5043 46.6112 49.6762L46.6094 49.6778Z" fill="#CCA847"/>
<path fill-rule="evenodd" clip-rule="evenodd" d="M46.6094 59.9898C46.6094 59.9898 46.6405 60.0101 46.7005 60.043C50.0535 58.4721 53.0579 56.2453 55.5361 53.4941C55.509 52.539 55.4739 51.56 55.4353 51.1972C55.3553 50.4278 55.4119 49.6445 55.3883 49.1915C55.3647 48.7385 55.1099 46.893 54.9919 46.4164C54.8644 45.9397 54.6186 45.7036 54.5813 45.7036C54.5483 45.7133 54.3498 46.6005 54.3498 46.8236C54.3498 47.0467 54.3025 47.5837 54.3025 47.7205C54.2695 47.7109 54.2555 47.6272 54.2555 47.593C54.2083 47.7109 54.1516 47.9187 54.128 47.9424C54.1043 47.966 54.161 47.7442 54.128 47.6969C54.095 47.6496 54.0347 47.6733 54.0477 47.5553C54.0533 47.4854 54.0643 47.416 54.0807 47.3478C54.0807 47.3478 53.9391 47.5553 53.8355 48.0839C53.7316 48.6078 53.7316 48.6221 53.694 48.6691C53.661 48.7261 53.4722 48.9146 53.4625 48.9855C53.4532 49.1128 53.6374 49.2403 53.6514 49.3109C53.6607 49.4292 53.4862 49.9764 53.4296 50.2443C53.3729 50.5121 53.3966 51.037 53.3362 51.3061C53.2889 51.5516 53.2429 51.6931 53.0814 51.7967C53.1993 51.8204 53.3126 51.8533 53.3126 51.8533C53.3126 51.8533 53.4778 52.5518 53.0578 53.1466C52.9069 53.3541 52.8692 53.4487 52.7087 53.6376C52.3923 53.9866 52.1468 54.3842 52.1232 54.6428C52.1069 54.5665 52.0958 54.4891 52.0902 54.4113C52.0902 54.4113 51.5996 54.9825 51.3918 55.3082C51.123 55.7282 50.75 55.7046 50.6451 55.8085C50.5403 55.9124 50.5176 56.1009 50.5518 56.2521C50.4584 56.2755 50.283 56.3088 50.1647 56.6721C50.1081 56.8607 49.9666 57.0455 49.7447 57.1724C49.5229 57.2993 49.2538 57.3376 49.1169 57.3706C49.2348 57.4036 49.2821 57.4036 49.3388 57.4412C49.2681 57.5591 48.9424 57.7433 48.579 57.9794C48.2156 58.2013 48.0408 58.5267 47.9512 58.7392C47.8579 58.9373 47.72 59.0649 47.4982 59.0885C47.5916 59.1452 47.7297 59.2771 47.8003 59.3197C47.6964 59.3433 47.5203 59.3433 47.2058 59.6125C46.8754 59.8862 46.7621 59.9665 46.6109 59.9901L46.6094 59.9898Z" fill="#C39D3C"/>
<path fill-rule="evenodd" clip-rule="evenodd" d="M40.0426 62.1771C40.2233 62.0504 40.419 61.9467 40.6253 61.8682C41.3614 61.5757 42.1401 61.5191 42.4468 61.4248C42.7396 61.3315 42.9708 61.2027 43.3341 61.1321C43.3245 61.2148 43.3164 61.2926 43.3077 61.366C42.2364 61.7028 41.1454 61.9737 40.041 62.1771H40.0426Z" fill="#D2BA6B"/>
<path fill-rule="evenodd" clip-rule="evenodd" d="M53.6191 42.8156C53.6191 42.8156 53.4682 43.632 53.1991 44.1466C52.93 44.6611 52.6391 45.3736 52.6391 45.3736C52.6409 45.213 52.6598 45.0531 52.6957 44.8967C52.356 45.0948 51.53 45.5718 51.2957 45.7839C51.0739 45.9821 50.7009 46.3315 50.6066 46.4967C50.8284 45.8455 51.0596 45.2603 51.0975 44.9912C50.7578 45.2367 49.1718 46.544 48.3461 47.4076L45.7738 49.489C45.477 49.6491 45.1713 49.7922 44.8582 49.9177C44.4149 50.1062 43.891 50.2667 43.504 50.4179C43.6079 50.1395 43.7728 49.8937 44.0042 49.6579C44.2497 49.4267 44.9858 48.6291 45.099 48.2579C45.2029 47.8709 45.2266 47.6397 45.0897 47.314C44.9621 47.347 44.6697 47.3613 44.4715 47.4179C44.2733 47.4745 44.0608 47.6867 44.0608 47.6867C44.0608 47.6867 44.2117 46.8231 44.5375 46.0067C44.292 46.016 43.872 46.0867 43.872 46.0867C43.872 46.0867 44.4572 45.1051 45.4587 44.421C45.152 44.4862 44.8518 44.5793 44.562 44.6991C43.9768 44.9446 43.335 45.3079 42.8584 45.5061C43.1272 45.1328 45.015 42.4386 46.1384 39.9276C47.2584 37.4216 47.6769 36.7798 47.9224 35.4348C48.0496 34.7694 48.0157 33.7859 48.0496 32.9052C48.0826 32.0319 48.1912 31.2485 48.1205 30.7246C48.413 31.088 49.5081 32.1122 49.5457 34.4013C49.5787 36.6902 48.4982 39.7817 47.3512 41.4474C47.6312 41.5276 48.3567 41.6222 49.1021 40.3274C49.8475 39.0325 49.8385 38.671 50.1076 38.1328C50.1406 38.4019 50.1309 38.4962 50.1309 38.4962C50.1309 38.4962 51.2167 37.1795 51.731 35.5229C51.8349 36.2356 52.1416 36.8635 51.66 38.1707C51.2307 39.3505 50.6692 39.6386 50.6692 39.6386C50.6692 39.6386 50.9476 39.5913 51.3579 39.3458C51.4289 39.5203 51.4149 39.7191 51.5328 39.7895C51.6507 39.8598 51.8112 39.9783 51.8349 40.0915C51.9621 39.9027 52.1603 39.6619 52.2219 39.4827C52.1746 39.856 52.1416 41.4884 52.3152 42.3191C52.6789 42.2861 53.0516 42.2625 53.3064 41.6063C53.1319 42.2485 53.1319 42.6352 53.2498 43.1827C53.4433 43.0508 53.6179 42.8147 53.6179 42.8147L53.6191 42.8156Z" fill="#C0993A"/>
<path fill-rule="evenodd" clip-rule="evenodd" d="M41.3566 16.8015C41.3566 16.8015 40.9933 16.9524 40.3751 16.9524C39.8372 16.9524 39.988 16.7449 39.148 16.7449C37.855 16.7449 33.3382 17.4915 32.5452 17.481C32.0306 17.4716 34.2819 17.7028 34.2819 17.7028L40.0353 17.7831L41.1914 17.6897L41.6211 16.8155L41.3566 16.8015Z" fill="#A88F33"/>
<path fill-rule="evenodd" clip-rule="evenodd" d="M26.439 28.0481C26.439 28.0481 25.7026 28.6097 25.3912 29.0393C25.0798 29.469 24.9146 29.7518 24.5605 30.1012C24.6437 30.1043 24.7267 30.0932 24.806 30.0682C24.806 30.0682 24.806 30.1615 24.7494 30.1861C24.7983 30.1806 24.8479 30.1862 24.8944 30.2023C24.9409 30.2185 24.9832 30.2448 25.0182 30.2794C24.9143 30.3361 24.6312 30.6195 24.853 30.9545C25.0182 31.2093 25.3676 31.2327 25.3676 31.2327C25.3676 31.2327 25.2873 31.4641 25.6224 31.4405C26.3445 31.4075 27.1515 31.0911 27.5242 31.1714C27.8975 31.2647 28.1097 31.2989 28.3738 31.7569C28.6538 32.2099 28.8977 32.2808 28.8977 32.2808C28.8977 32.2808 29.0629 31.8605 29.0253 31.233C29.1608 30.8947 29.2358 30.5354 29.2471 30.1712L29.0017 28.3636L27.9305 27.009L26.5429 27.7784L26.439 28.0472V28.0481Z" fill="#E3C571"/>
<path fill-rule="evenodd" clip-rule="evenodd" d="M27.7549 27.7791C27.7549 27.7791 27.8588 28.0245 28.2931 28.0479C28.2458 28.1518 28.2458 28.1661 28.2601 28.246C28.2695 28.3263 28.2835 28.4442 28.2835 28.4442C28.3313 28.4211 28.3745 28.3894 28.411 28.3509C28.4347 28.4548 28.3874 28.6197 28.411 28.7379C28.4256 28.8098 28.4493 28.8795 28.4816 28.9454C28.4885 28.9293 28.4964 28.9136 28.5053 28.8984C28.5146 28.8748 28.5986 29.1532 28.831 29.3651C28.8308 29.3325 28.8388 29.3004 28.8543 29.2718C28.8579 29.3309 28.8775 29.388 28.911 29.437C28.8936 29.4287 28.8777 29.4175 28.864 29.404C28.864 29.404 28.8873 30.1507 29.0149 30.5367C29.0362 30.5118 29.0552 30.4849 29.0715 30.4565C29.0715 30.4331 29.0622 30.6643 29.0385 30.8298C29.0056 30.995 29.0292 31.2262 29.0292 31.2262C29.1143 31.1592 29.2078 31.1036 29.3073 31.061C29.4489 31.004 29.6807 30.8295 29.8219 30.4425C29.9038 30.2233 29.967 29.9975 30.0108 29.7677C30.0564 29.8555 30.0879 29.95 30.1041 30.0477C30.1137 30.1656 30.3356 30.1043 30.3356 30.1043L30.3828 29.5897L30.6628 28.424L30.9176 27.7019L32.1447 25.7907L34.3616 24.0834L36.2968 24.527L37.9295 22.3088L35.1167 20.6191L32.4548 20.8976L30.0391 24.2436L28.1043 27.2785L27.7549 27.7787V27.7791Z" fill="#D8B65B"/>
<path fill-rule="evenodd" clip-rule="evenodd" d="M41.6964 22.937C41.6964 22.937 41.5312 22.9699 41.0546 23.217C40.578 23.464 40.2476 23.5424 40.0634 23.9058C39.8792 24.2692 39.8652 24.5572 39.8652 24.5572C39.8652 24.5572 40.1909 24.4157 40.3798 24.3684C40.578 24.3214 40.7998 24.3354 40.7761 24.4157C40.7535 24.4707 40.7219 24.5217 40.6828 24.5666C40.6828 24.5666 41.0561 24.5572 41.0462 24.7414C41.0362 24.9256 40.9756 25.1285 40.9049 25.2181C40.834 25.3114 40.5416 25.4495 40.5086 25.5581C40.4283 25.7799 40.5416 25.7893 40.4989 25.9685C40.466 26.1433 40.3104 26.483 39.8005 27.0776C39.2766 27.6724 39.0538 28.0924 39.0538 28.0924C39.0538 28.0924 38.799 27.6158 38.6668 27.2051C38.5735 27.2521 38.0723 27.5306 38.0723 27.5306L36.9112 23.4861L36.9345 23.217C36.9345 23.217 37.0384 23.0897 37.0621 22.8536C36.8875 22.797 36.8639 22.7497 36.6324 22.5282C36.401 22.3067 36.2124 22.0372 35.8257 21.853C35.7691 21.7491 35.6982 21.6079 35.415 21.551C35.1319 21.494 34.9621 21.4474 34.9621 21.4474C34.9621 21.4474 35.113 21.3904 35.1839 21.2725C35.009 21.2962 34.8678 21.3528 34.4854 21.3434C34.0984 21.3338 34.0558 21.3198 33.8436 21.3528C33.6314 21.3858 33.3769 21.4803 33.2821 21.1546C33.1781 21.0743 32.9563 21.1453 32.7675 21.4234C32.5786 21.7015 32.5127 21.9237 32.1493 22.0323C32.1237 22.1924 32.0677 22.3462 31.9841 22.4852C31.8802 22.6601 31.715 22.8346 31.4932 23.0941C31.1438 23.5048 31.2004 24.1796 30.6435 24.6941C30.0819 25.2084 30.7368 23.2686 30.7368 23.2686L31.6335 21.1219L34.1868 18.6252L38.1513 18.3564L38.5383 20.4098L40.4734 21.0753L41.6958 22.9395L41.6964 22.937Z" fill="#D3AE4D"/>
<path fill-rule="evenodd" clip-rule="evenodd" d="M42.3238 23.3897L40.6579 20.9876L39.4922 20.0907C39.4922 20.0907 38.6615 18.5619 38.6049 18.5147C38.5576 18.4817 37.7742 18.3967 37.274 18.3638L37.3673 18.5949C37.4765 18.6304 37.5735 18.6958 37.6473 18.7838C37.8691 19.0386 38.0107 19.5198 37.5058 20.0344C37.7039 20.105 37.7858 20.1277 37.9587 20.105C37.7842 20.3129 37.3879 20.7565 37.3642 21.1435C37.3406 21.4596 37.5387 21.5539 37.5387 21.5539C37.5387 21.5539 37.2367 21.9032 37.2227 22.4872C37.3653 22.3263 37.5214 22.1779 37.6893 22.0435C38.0387 21.7636 38.52 21.4487 38.8457 21.2505C38.8412 21.3337 38.8524 21.417 38.8787 21.496C38.8787 21.496 39.4872 20.9957 39.9986 21.2176C40.2298 21.3215 40.1259 21.6472 40.1259 21.6472C40.1259 21.6472 40.4423 21.5293 40.6641 21.7511C40.8859 21.9729 41.202 22.5438 41.3625 22.7659C41.4331 22.8698 41.6173 23.068 41.8058 23.3745C42.0634 23.804 42.2785 24.2577 42.4479 24.729C42.4573 24.5402 42.4952 24.2761 42.8213 24.2761L42.3257 23.3888L42.3238 23.3897Z" fill="#CAA13E"/>
<path fill-rule="evenodd" clip-rule="evenodd" d="M17.3483 30.2145C17.3483 30.2145 17.2304 29.9217 17.3483 29.3509C17.4662 28.78 17.6504 28.5109 17.7117 27.6709C17.773 26.8309 18.3205 25.783 18.3205 25.783L19.8353 25.0942L20.9068 25.3867L21.2229 26.8215L19.8683 27.5682C19.8683 27.5682 19.7977 27.8843 19.4153 28.1391C19.033 28.3939 18.5044 28.5921 18.3771 28.8518C18.3011 29.0109 18.2456 29.179 18.2119 29.3521C18.2119 29.3521 17.8249 29.2718 17.5938 29.5266C17.3483 29.7864 17.3576 30.0176 17.3483 30.2157V30.2145Z" fill="#F4EFC8"/>
<path fill-rule="evenodd" clip-rule="evenodd" d="M20.4067 29.832C20.4067 29.832 20.2792 29.9123 20.1849 30.112C20.0916 29.9611 19.8685 29.0642 19.8592 28.2572C19.8498 27.4502 19.8016 27.2501 19.9883 26.972C20.1749 26.6939 20.907 26.4008 20.8031 25.8999C20.6992 25.4233 20.2648 25.2251 19.7316 25.362C19.3583 25.4553 19.0804 26.2493 18.6934 26.6456C18.4007 26.9477 18.0516 26.9004 17.9573 27.0656C17.8298 27.2875 17.9477 27.5093 17.91 27.6508C17.9004 27.6981 17.7825 27.9529 17.57 28.2597C17.1407 28.8778 16.4139 29.7511 16.3193 30.5345C16.3523 30.0909 16.329 30.0815 16.4469 29.5906L16.376 29.4727L16.8426 27.9436L17.1447 26.6836L17.8198 24.5737L19.0089 22.4171L20.1653 21.1238L21.3687 21.204L21.5102 23.0116L22.1993 26.4052L23.6482 28.1891L21.326 29.7518L20.4058 29.832H20.4067Z" fill="#EBCC73"/>
<path fill-rule="evenodd" clip-rule="evenodd" d="M21.1285 30.4733C21.1285 30.4733 20.9303 30.5206 20.8594 30.483C20.7884 30.4453 20.7181 30.4027 20.7415 30.3554C20.7648 30.3081 20.8923 30.2282 20.8923 30.1902C20.895 30.1559 20.8841 30.1219 20.8621 30.0955C20.8401 30.0691 20.8086 30.0523 20.7744 30.0486C20.6659 30.0346 20.6329 30.1053 20.6329 30.1053C20.6329 30.1053 20.529 30.0253 20.4443 30.0119C20.4944 30.0058 20.5448 30.0026 20.5952 30.0023C20.4648 29.9432 20.3265 29.9035 20.1846 29.8844C20.3025 29.8137 20.5339 29.6059 20.6848 29.6059C20.8357 29.6059 20.9303 29.5826 20.9067 29.5023C20.883 29.422 20.7651 29.3041 20.6379 29.2568C20.6848 29.2002 20.7181 29.1153 20.6049 28.8835C20.4867 28.6523 20.5339 28.4965 20.5719 28.4401C20.6049 28.3692 20.7228 28.242 20.7794 28.1617C20.836 28.0814 20.8833 27.9728 20.9776 27.9162C21.0249 27.8832 21.1758 27.8229 21.327 27.7653C21.4922 27.7087 21.6291 27.6378 21.7233 27.7087C21.8272 27.7793 21.7799 27.8739 21.7799 27.8739C21.7799 27.8739 22.1057 27.7557 22.3981 27.9069C22.6909 28.0481 23.4036 28.1381 23.4036 28.1381L23.6591 28.6526L21.9694 30.1015L21.271 30.4509L21.1294 30.4742L21.1285 30.4733Z" fill="#E5C66B"/>
<path fill-rule="evenodd" clip-rule="evenodd" d="M23.474 28.1046C23.474 28.1046 22.9501 28.454 22.8322 28.5813C22.9028 28.5909 23.0208 28.6382 22.9735 28.7088C22.9168 28.7794 22.5771 29.0249 22.3883 29.2564C22.1901 29.4875 22.0012 29.7803 21.9353 29.9218C21.8647 30.0491 21.3264 30.4221 21.1426 30.4691C21.5296 30.4691 22.3083 29.9925 22.6008 29.9925C22.5914 30.134 22.681 30.2946 22.8462 30.3086C23.0114 30.3226 23.488 30.4125 24.1299 30.0161C24.7717 29.6291 24.5595 29.341 24.8283 29.1525C25.3429 28.8124 25.5504 28.5103 25.8335 28.3218C26.1166 28.1333 26.2632 28.0903 26.2632 28.0903C26.2632 28.0903 26.2725 27.9488 26.3565 27.9631C26.3795 27.9657 26.4013 27.9746 26.4196 27.9887C26.4379 28.0029 26.452 28.0218 26.4604 28.0434C26.4604 28.0434 26.9513 27.694 27.5804 27.5997C27.5657 27.5931 27.554 27.5814 27.5474 27.5667C27.5474 27.5667 27.5944 27.5431 27.604 27.5194C27.604 27.5194 27.637 27.4722 27.6607 27.4958C27.6843 27.5194 27.7173 27.694 27.7646 27.7649C27.8685 27.7176 28.0667 27.274 28.0667 27.274L28.5436 25.9101V24.6641L28.1703 24.735L25.3703 25.9241L23.671 27.6846L23.4728 28.1046H23.474Z" fill="#E6BD62"/>
<path fill-rule="evenodd" clip-rule="evenodd" d="M31.5358 21.993C31.6872 21.9563 31.8324 21.8973 31.9667 21.8182C31.9101 21.9694 31.9101 22.1346 31.6646 22.4933C31.4191 22.852 31.4098 22.9039 31.2116 23.2767C31.0134 23.6637 30.9898 24.2206 30.8009 24.4657C30.8856 24.4246 30.9764 24.3976 31.0697 24.3858C31.0697 24.3858 30.8812 24.551 30.8009 24.7255C30.7207 24.9001 30.5791 25.2634 30.23 25.4856C29.881 25.7077 29.437 25.849 28.9604 26.3729C28.4835 26.8871 27.9928 27.5386 27.7471 27.7729C27.8746 27.5511 28.0492 27.1074 28.0964 26.815C28.1437 26.5225 28.0868 26.1728 28.1671 25.7861C28.2473 25.3994 28.2473 25.1206 28.6337 24.4455C29.0201 23.7704 29.6816 21.4249 29.6816 21.4249L31.1068 20.9719L31.5364 21.9914L31.5358 21.993Z" fill="#B6933F"/>
<path fill-rule="evenodd" clip-rule="evenodd" d="M30.5068 21.1293C30.5068 21.1293 30.0775 21.7475 29.9596 22.2951C29.8417 22.8426 29.95 22.7953 29.8793 23.0644C29.8371 23.2285 29.8371 23.4006 29.8793 23.5647C30.028 23.3252 30.2316 23.1245 30.4732 22.9792C30.8792 22.734 31.2096 22.5592 31.4066 22.3517C31.6047 22.1299 31.7699 21.7665 32.1993 21.488C32.0247 21.4644 31.7793 21.3841 31.7326 21.3947C31.9075 21.1965 32.431 20.8944 32.9596 20.5311C33.4835 20.1577 33.4506 20.0071 34.3002 19.6344C34.0217 19.6817 33.8895 19.6108 33.6581 19.6344C33.7514 19.4363 34.0781 19.3417 34.4047 19.0163C34.7314 18.6908 34.1972 18.2092 34.1972 18.2092L31.7083 19.7147L30.505 21.1306L30.5068 21.1293Z" fill="#C49937"/>
<path fill-rule="evenodd" clip-rule="evenodd" d="M23.7529 20.0061L23.8096 19.5531L24.5223 18.411L25.268 16.4053V13.6632L25.2114 12.0774L25.3293 11.0389L25.4189 10.7089L25.5135 10.5813L26.122 10.8974L26.9623 12.0395L27.0426 14.2437L26.226 17.7219L23.8945 20.2659L23.7529 20.0061Z" fill="#DFC068"/>
<path fill-rule="evenodd" clip-rule="evenodd" d="M25.6078 10.4536C25.6078 10.4536 25.2345 10.4632 25.1548 12.016C25.0752 13.5687 25.0366 14.3851 24.98 15.1545C24.9234 15.9239 24.7915 16.3908 24.7252 16.8441C24.6589 17.2974 24.6213 17.9153 24.4091 18.293C24.3158 18.4675 24.1163 19.0151 23.6491 19.4257C23.1252 19.8787 22.3424 20.1951 22.2239 20.2187C22.0161 20.2657 20.9636 20.3696 20.5342 20.6058C20.3834 20.686 20.1236 20.7803 19.8358 21.0494C19.2646 21.5637 18.5049 22.4839 17.9573 23.5931C17.1173 25.2497 16.2773 29.9267 16.2773 29.9267L16.4662 29.6106C16.4662 29.6106 16.4898 29.1906 16.9098 28.4542C17.3205 27.7181 17.2026 26.8921 17.7735 25.4809C17.9953 24.943 18.2737 24.2445 18.6135 23.6497C19.1517 22.6821 19.8028 21.8515 20.459 21.3985C21.5301 20.6624 22.7101 20.5019 22.7101 20.5019L23.9798 19.6619C23.9798 19.6619 24.2016 19.2325 24.4943 18.7416C24.9047 18.0528 25.4277 17.2834 25.5418 16.165C25.7167 14.5083 25.2964 13.4228 25.32 12.4413C25.3437 11.4597 25.353 10.7376 25.5515 10.5628C25.75 10.3879 25.6081 10.4542 25.6081 10.4542L25.6078 10.4536Z" fill="#A88F33"/>
<path fill-rule="evenodd" clip-rule="evenodd" d="M25.6083 17.8635C25.6083 17.8635 26.1683 16.4853 26.4247 15.2629C26.4719 15.0174 26.5662 14.7723 26.5899 14.5741C26.7078 13.4177 26.7408 12.9411 26.5899 12.3086C26.4719 11.8419 26.019 11.4213 25.7828 11.0953C25.5517 10.7552 25.4431 10.6286 25.4904 10.557C25.5377 10.4855 25.7215 10.3685 25.9007 10.3825C26.0912 10.388 26.2786 10.4323 26.4515 10.5125C26.6243 10.5927 26.7791 10.7073 26.9063 10.8492C27.2697 11.2692 27.5574 12.6947 27.5574 12.6947L27.8602 14.5757L28.6296 16.9448L25.6089 17.8653L25.6083 17.8635Z" fill="#C99E3D"/>
<path fill-rule="evenodd" clip-rule="evenodd" d="M30.8707 16.4286C30.8707 16.4286 30.7668 16.4756 30.5782 16.4286C30.5863 16.5057 30.5729 16.5834 30.5396 16.6534C30.5063 16.7233 30.4543 16.7827 30.3894 16.825C30.1912 16.7447 28.3361 16.9052 28.3361 16.9052C28.3361 16.9052 27.4724 16.754 27.2033 15.6119C27.0148 14.8519 27.3449 13.8044 27.2363 13.1153C27.0711 12.1004 26.8399 11.9019 26.8163 11.5862C26.7926 11.2704 26.769 11.1898 26.769 10.9916C26.6651 10.968 26.6038 10.935 26.5002 10.935C26.4765 10.8417 26.5235 10.7602 26.4199 10.595C26.4765 10.6186 26.8636 10.6659 27.3165 11.0952C27.6899 11.4446 27.6899 11.5719 27.7462 11.6428C27.8168 11.7134 28.388 12.2028 28.6335 12.6906C28.8789 13.1784 29.3556 14.734 29.4641 14.9888C29.4971 15.0927 29.5681 15.1966 29.7441 15.4324C30.0179 15.7725 30.4189 16.3347 30.8719 16.428L30.8707 16.4286Z" fill="#B58634"/>
<path fill-rule="evenodd" clip-rule="evenodd" d="M27.8115 11.6665C28.0974 12.1284 28.3543 12.6076 28.5806 13.1013C28.859 13.7289 29.0242 14.2434 29.3736 14.6634C29.1848 14.1162 28.8497 13.0401 28.6515 12.6577C28.4297 12.2533 27.9767 11.8177 27.8115 11.6668V11.6665Z" fill="#A88F33"/>
<path fill-rule="evenodd" clip-rule="evenodd" d="M24.6024 19.4256C24.6024 19.4256 24.1257 19.5435 23.2385 20.0108C22.9457 20.1617 22.6676 20.2889 22.3985 20.4072C21.6994 20.7232 20.9497 21.0154 20.3549 21.1765C20.4021 21.2332 20.4255 21.2565 20.4255 21.2565C20.4255 21.2565 20.4255 21.488 20.553 21.6199C20.4824 21.6908 19.5382 22.3326 19.817 24.4799C20.0055 24.4093 20.2273 24.3147 20.2603 24.3147C20.3172 24.3244 20.3312 24.4799 20.4018 24.4799C20.4724 24.4799 20.7039 24.3866 20.9494 24.0692C20.94 24.1968 20.7985 25.4804 21.5582 26.3441C21.6998 26.1789 22.0585 25.6313 22.0585 25.6313L22.0678 25.4568C22.0678 25.4568 22.1008 24.848 22.2993 24.2911C22.4977 23.7342 22.8844 23.3235 22.8844 23.3235L24.9038 20.4398L24.6017 19.4253L24.6024 19.4256Z" fill="#E6C367"/>
<path fill-rule="evenodd" clip-rule="evenodd" d="M22.7151 23.66C22.6226 23.7253 22.5208 23.7762 22.413 23.8109C22.38 23.693 22.3327 23.287 22.6112 22.8906C22.9369 22.4137 23.6494 21.7955 23.8475 21.3039C23.9751 20.9875 23.9185 20.1948 25.0512 19.18C26.184 18.1651 26.6273 17.816 26.6273 17.816L28.4585 16.8958L30.7097 17.7831L29.5913 22.1667L28.723 24.22L25.2696 23.5688L22.7148 23.66H22.7151Z" fill="#DCBA5A"/>
<path fill-rule="evenodd" clip-rule="evenodd" d="M24.0332 22.4698L24.4629 21.9318V21.5495C24.4629 21.5495 24.9395 21.4219 25.4537 20.898C25.968 20.3741 26.6808 19.3689 27.3086 19.4302C27.9364 19.5011 27.9977 20.7941 28.0214 21.1578C28.045 21.5215 28.1253 22.3469 28.2525 22.7908C28.3941 23.2345 26.7234 24.9145 26.7234 24.9145L25.5888 25.7782L24.0332 22.4698Z" fill="#E9CE77"/>
<path fill-rule="evenodd" clip-rule="evenodd" d="M25.3623 26.9484C25.3623 26.9484 25.7117 26.4009 25.4556 26.283C25.6065 25.9432 25.885 25.5845 25.885 25.5845C25.885 25.5845 26.0831 25.0939 26.7249 24.4897C27.3667 23.8855 27.7634 23.4842 27.8673 23.0785C27.9314 22.8141 27.9662 22.5435 27.9712 22.2715C28.0406 22.3282 28.1148 22.3787 28.193 22.4224C28.2969 22.4697 28.7875 22.8754 28.7169 23.692C28.6463 24.5087 28.3436 24.8484 28.3436 24.8484C28.3436 24.8484 28.0512 25.1409 27.8437 25.2921C27.6215 25.443 27.5416 25.6175 27.1686 25.6318C27.2069 25.6013 27.25 25.5773 27.2961 25.5609C27.2961 25.5609 26.9091 25.5139 26.7013 25.7024C26.4935 25.891 26.0517 26.4718 25.8299 26.6466C25.6081 26.7882 25.3632 26.9487 25.3632 26.9487L25.3623 26.9484Z" fill="#CDAE50"/>
<path fill-rule="evenodd" clip-rule="evenodd" d="M41.0549 17.7688C40.4974 17.5656 39.9114 17.451 39.3183 17.4291C38.3271 17.3961 36.8783 17.4527 35.4578 17.4621C33.9287 17.4714 32.5412 16.9382 30.6157 16.8439C30.2996 16.655 29.4957 15.829 26.9863 17.58C27.1372 17.5707 28.8082 17.193 29.3884 17.92C29.9736 18.6421 29.8084 19.8692 29.7284 20.1616C29.5772 20.8131 29.0863 21.7617 28.8884 22.4271C28.6906 23.0926 28.7372 23.4423 28.5957 23.909C28.4541 24.3756 28.1427 24.6074 28.3266 25.1453C28.572 24.9944 28.6999 24.9944 29.11 24.0742C29.52 23.1539 29.4357 22.4978 30.1155 21.719C30.7809 20.9357 31.8888 19.8642 32.31 19.5951C32.7312 19.326 36.076 17.5893 39.5781 19.246C40.4228 19.1564 41.0552 17.7685 41.0552 17.7685L41.0549 17.7688Z" fill="#D2A83E"/>
<path fill-rule="evenodd" clip-rule="evenodd" d="M28.3965 17.1264C28.393 17.091 28.3852 17.0561 28.3731 17.0225C28.3404 16.9535 28.2974 16.8898 28.2456 16.8337C28.2456 16.8337 27.4149 16.6828 26.9949 16.7298C26.2585 16.81 25.5931 17.721 25.2816 18.1883C24.9702 18.6556 24.5832 19.3774 24.1632 19.7504C24.1678 19.714 24.1594 19.6772 24.1396 19.6465C24.1396 19.6465 24.1632 19.6794 24.1162 19.7267C24.0693 19.774 24.0689 19.7974 24.0926 19.8201L24.1635 19.8907C24.1869 19.8907 24.8383 19.5979 25.7256 18.7707C26.6695 17.907 27.3916 17.464 27.7693 17.3122C27.9707 17.2266 28.1812 17.1643 28.3968 17.1264H28.3965Z" fill="#C29637"/>
<path fill-rule="evenodd" clip-rule="evenodd" d="M44.5101 13.5781C44.5101 13.5781 44.3589 13.7667 44.1701 13.9745C43.7501 14.4181 43.2025 14.9181 42.7352 15.4327C42.2919 15.9236 41.7916 16.306 41.2298 16.9478C40.6679 17.5896 40.0164 18.3021 39.8515 18.5099C39.7006 18.7177 39.5827 19.0574 39.5827 19.232C39.5025 19.1754 39.4082 19.1141 39.4082 19.1141C39.4479 19.1882 39.4953 19.2578 39.5498 19.3219C39.6677 19.4871 39.8515 19.6952 39.9461 19.8222C40.0621 19.9838 40.1454 20.1665 40.1913 20.3601C40.2479 20.3694 40.6113 20.4403 41.0646 19.6946C41.5179 18.9489 42.1121 18.1325 42.1121 18.1325L43.056 16.7306L43.6508 15.5416L44.3975 14.2106L44.511 13.5781H44.5101Z" fill="#AC8132"/>
<path fill-rule="evenodd" clip-rule="evenodd" d="M45.4772 12.6248C45.4772 12.6248 44.906 13.0914 44.6842 13.3714C44.4623 13.6514 43.9375 14.3863 43.9375 14.3863L44.1263 14.3627L45.0846 13.5133L45.4579 12.8478L45.4769 12.626L45.4772 12.6248Z" fill="#A88F33"/>
<path fill-rule="evenodd" clip-rule="evenodd" d="M45.3023 50.1308C45.3023 50.1308 45.293 49.7438 45.5101 49.5126C45.7319 49.2812 46.2935 48.9414 46.8411 47.6671C47.3886 46.3928 47.4496 46.105 47.4496 46.105C47.4496 46.105 46.468 46.945 45.8629 47.1432C46.0045 46.8505 46.0847 46.643 46.1557 46.4918C46.0754 46.4211 45.7357 46.3409 45.7027 46.3032C45.8912 46.1144 45.9951 45.6518 46.3775 45.345C46.8684 44.9717 47.7651 44.3302 48.4619 43.7583C49.1588 43.1865 50.529 41.8565 50.7038 41.4695C50.8077 41.6204 50.8311 41.7146 50.8311 41.7146C50.8311 41.7146 50.1423 42.6116 49.7835 43.1825C49.4671 43.6734 49.4908 43.9518 49.4908 43.9518L50.1423 43.6718C50.1423 43.6718 50.3308 44.3703 49.4768 45.4324C49.8501 45.2909 50.0007 45.3758 50.2129 45.2576C49.8635 45.4797 49.3822 45.7818 48.9292 46.6122C48.4856 47.4428 47.8814 48.4104 46.8622 49.0142C45.871 49.6514 45.2998 50.128 45.2998 50.128L45.3023 50.1308Z" fill="#A67A2E"/>
<path fill-rule="evenodd" clip-rule="evenodd" d="M42.744 18.2601C42.744 18.2601 42.357 19.0668 42.3004 19.6946C42.2911 19.8458 42.2531 19.9637 42.2531 20.1382C42.2438 20.6998 42.2861 21.3276 42.1598 21.6201C42.1125 21.5021 42.0889 21.4219 42.0416 21.3749C41.971 21.5731 41.8434 22.1912 41.7395 22.4224C41.6925 22.2715 41.5886 21.7476 41.5983 21.1294C41.6079 20.5113 41.6216 20.393 41.6216 20.2658C41.5983 20.4543 41.4707 20.7094 41.4234 20.8603C41.3528 20.7331 41.2725 20.5679 41.178 20.431C41.1213 20.5243 41.0507 20.6621 40.9894 20.7331C40.9798 20.6765 40.9565 20.5253 40.9422 20.3131C40.9328 20.0676 40.9185 19.7515 40.9328 19.6853C40.9562 19.558 41.1546 19.0578 41.5746 18.5998C42.0749 18.0523 42.5894 17.0001 42.7403 16.6744C42.8912 16.3486 43.533 14.9944 43.533 14.9944H44.0239L43.3112 16.6177C43.3112 16.6177 42.8819 17.505 42.6601 17.8311C42.4382 18.1571 41.971 19.0914 41.7631 19.4547C41.914 19.2566 42.0416 19.1527 42.1928 18.9638C42.339 18.8316 42.7447 18.2607 42.7447 18.2607L42.744 18.2601Z" fill="#8C6228"/>
<path fill-rule="evenodd" clip-rule="evenodd" d="M45.4868 12.563C45.4066 12.8098 45.2798 13.039 45.1134 13.2381C44.8207 13.5875 44.1929 14.0545 43.8865 14.4272C43.6065 14.7905 43.0465 15.7817 43.301 16.9568C43.3943 16.702 43.5701 16.1971 44.0373 15.6259C44.5046 15.0547 45.0049 14.3989 45.2506 13.8893C45.4958 13.3747 45.5288 12.969 45.5288 12.969L45.6221 12.8511L45.5655 12.582L45.4852 12.563H45.4868Z" fill="#CBA94C"/>
<path fill-rule="evenodd" clip-rule="evenodd" d="M55.0437 43.868C55.0437 43.868 54.8549 43.3538 54.7982 42.8865C54.7416 42.4192 54.8916 42.3265 54.718 41.7917C54.6141 41.466 54.4255 41.5117 54.3782 41.466C54.3309 41.4202 54.298 40.928 54.3073 40.6589C54.3166 40.3898 54.298 40.0408 54.2507 39.8896C54.1801 39.8329 54.1328 39.7856 54.0289 39.4366C53.9109 39.0872 53.8543 38.9127 53.7977 38.8091C53.7411 38.7055 53.5756 38.6109 53.5756 38.507C53.5756 38.2992 53.7644 38.1909 53.7644 38.1336C53.7551 38.0157 53.6135 38.1103 53.5756 38.077C53.5286 38.0204 53.6938 37.6807 53.6325 37.6334C53.6089 37.61 53.4436 37.8082 53.401 37.7516C53.3537 37.6947 53.2971 37.1331 53.2122 36.7604C53.1322 36.397 53.047 36.1329 53.0376 36.0243C53.0283 35.9204 52.3862 34.0892 52.2306 33.6456C52.1053 33.2707 51.9997 32.8894 51.9145 32.5035C51.8672 32.2816 51.8343 31.8284 51.8106 31.8756C51.787 31.9229 51.8013 32.1541 51.7633 32.1447C51.7303 32.1351 51.6124 31.3284 51.5748 31.2008C51.5418 31.0733 51.3433 30.6408 51.2948 30.3279C51.2475 30.0115 51.1439 29.1855 51.073 28.6239C51.002 28.0624 50.9691 27.8312 50.9691 27.6906C50.9807 27.3466 50.9617 27.0023 50.9124 26.6617C50.8191 26.0669 50.6324 25.3448 50.4688 24.9251C50.1527 24.1321 49.3124 22.1027 49.1621 21.5978C49.1621 21.4702 49.3273 21.5412 49.3273 21.5412C49.3273 21.5412 49.7377 22.57 50.0398 23.3627C50.3325 24.1557 50.611 24.8542 50.6819 24.9251C50.7385 24.9957 51.1822 25.7744 51.3803 27.0488C51.5785 28.3231 51.6491 29.4981 51.7674 30.2815C51.824 30.6548 51.8713 31.0509 51.9892 31.4472C52.1164 31.8769 52.3146 32.3205 52.5744 33C52.7962 33.5712 52.9614 34.0478 53.051 34.4585C53.1549 34.9824 53.1549 35.3788 53.2162 35.6385C53.2732 35.8604 53.3578 36.3037 53.5563 36.9452C53.7548 37.5867 54.0469 38.413 54.2451 38.9273C54.6324 39.9561 54.8051 40.8151 54.8636 41.2731C54.9152 41.745 55.0901 43.378 55.0428 43.8687L55.0437 43.868Z" fill="#A88F33"/>
<path fill-rule="evenodd" clip-rule="evenodd" d="M45.5101 12.5066L45.4864 12.5633C45.4864 12.5633 45.557 12.5869 45.543 12.6815C45.544 12.8109 45.5361 12.9402 45.5194 13.0685C45.4961 13.2337 45.4488 13.3609 45.4394 13.4649C45.4394 13.6867 45.4724 13.9415 45.1594 14.574C45.0661 14.7485 45.0086 14.8994 44.9613 15.0033C44.8434 15.2581 44.8197 15.2961 44.7158 15.414C44.881 15.3206 45.4758 14.9473 45.7776 15.0033C45.5701 15.1212 45.2537 15.3527 45.0555 15.6548C45.1028 15.6641 45.301 15.7021 45.6155 15.6548C46.1394 15.5745 46.7246 15.3857 47.2388 15.4233C47.8007 15.4563 47.5789 14.7485 47.5789 14.7485L46.9305 13.3233L45.7036 12.46L45.5101 12.5069V12.5066Z" fill="#BE9C44"/>
<path fill-rule="evenodd" clip-rule="evenodd" d="M48.7098 23.1822C48.7098 23.1822 48.1622 22.6346 47.9404 20.7555C47.7186 18.8677 47.7658 16.0889 47.7658 16.0889L47.3222 15.0034C47.3222 15.0034 47.2289 14.2813 46.9965 14.0125C46.7641 13.7437 46.3077 13.2904 46.0999 13.0686C45.892 12.8468 45.6562 12.5447 45.5146 12.4974C45.5853 12.3795 45.9017 11.714 47.1144 11.7047C48.3271 11.6954 48.701 12.3702 48.8277 12.6156C48.9543 12.8611 49.5261 13.9223 49.7383 15.9445C49.9365 17.9642 49.9461 18.1154 49.9131 18.8139C49.8895 19.2009 49.7619 20.0975 49.5398 21.0554C49.337 21.8674 49.1151 22.7737 48.7091 23.1841L48.7098 23.1822Z" fill="#A17C34"/>
<path fill-rule="evenodd" clip-rule="evenodd" d="M46.9934 24.7917C47.1759 24.8048 47.3582 24.7637 47.5173 24.6735C47.6919 24.6641 48.3244 24.7444 48.8104 24.1262C48.8434 24.2675 48.9286 24.6501 48.7065 24.9899C48.8247 24.8716 48.9993 24.8247 49.0229 24.7917C49.0322 24.9662 49.1974 25.5041 48.499 26.8114C48.6875 26.6039 48.9093 26.6132 49.1075 26.5896C49.1172 26.835 49.2491 27.6607 48.9 28.1047C48.6688 28.4068 48.2911 28.3122 48.2911 28.3122C48.2966 28.2462 48.2966 28.18 48.2911 28.114C48.2818 27.9865 48.2345 27.8592 48.2678 27.7743C48.0853 27.6909 47.919 27.5758 47.7768 27.4342C47.3661 27.0472 46.8328 26.3867 46.7952 25.8958C46.7479 25.3483 47.2389 25.2303 47.2389 25.2303C47.1977 25.1936 47.1627 25.1505 47.135 25.1028C47.1113 25.0228 47.0877 24.8953 46.9934 24.7917Z" fill="#8C6228"/>
<path fill-rule="evenodd" clip-rule="evenodd" d="M43.353 18.8544C43.353 18.8544 43.3294 18.8214 43.2021 18.9723C43.2258 18.8214 43.2494 18.6796 43.2588 18.5427C43.319 18.4159 43.3969 18.2984 43.4902 18.1936C43.4193 18.3348 43.372 18.4624 43.372 18.4624C43.372 18.4624 43.5469 18.1367 43.8016 17.9385C43.9762 17.7969 44.198 17.731 44.2923 17.5988C44.3962 17.4572 44.3725 17.4336 44.3962 17.4099C44.3962 17.4099 44.6276 17.259 44.9817 16.8151C45.0286 16.7584 45.0996 16.6972 45.1469 16.6405C45.2268 16.6076 45.4156 16.5226 45.6375 16.4091C45.8689 16.2818 46.1284 16.1073 46.2889 16.0357C46.605 15.8942 46.9404 15.9085 47.0959 15.6864C47.2138 15.6534 47.3411 15.2993 47.3177 14.9976C47.4923 15.0682 48.3889 15.6251 48.6959 16.8428C48.9177 17.7064 48.5211 19.0373 48.3559 19.6795C48.1907 20.3216 48.1674 20.7979 47.9359 21.0904C47.6431 21.4777 46.6996 22.0237 46.4681 22.294C46.2699 22.5159 45.6754 23.0774 45.6987 23.4831C45.7224 23.7852 46.0951 23.9498 46.1757 24.007C46.2562 24.0643 46.2556 24.1346 46.4068 24.1004C46.558 24.0661 46.6143 23.9964 46.6759 23.9964C46.7465 24.0058 46.7465 24.0201 46.7795 24.0201C46.8034 24.0194 46.8272 24.0161 46.8505 24.0104C46.8505 24.0104 46.8268 24.4401 45.8216 24.5704C45.7507 24.5801 45.6801 24.6034 45.5902 24.6177C45.7084 24.5611 45.779 24.5611 45.9066 24.3866C45.765 24.3629 45.359 24.3393 45.2551 24.3063C45.2881 24.2497 45.3967 24.0985 45.4863 24.0279C45.5665 23.9572 45.4769 23.9345 45.4063 23.9712C45.2847 24.054 45.1681 24.1437 45.0569 24.24C44.939 24.344 44.8351 24.4855 44.6463 24.6134C44.5897 24.4245 44.599 24.0658 44.8211 23.8064C44.7642 23.8157 44.6556 23.9809 44.552 23.9479C44.5333 23.7758 44.5444 23.6017 44.585 23.4333C44.6416 23.2208 44.9484 22.8481 44.9484 22.8481L46.4302 20.2003L46.7462 18.1945L43.353 18.8538V18.8544Z" fill="#92723A"/>
<path fill-rule="evenodd" clip-rule="evenodd" d="M43.2734 18.9676C43.2734 18.9676 43.1932 19.0242 43.3537 19.1328C43.33 19.1658 43.2734 19.2837 43.2025 19.3639C43.1225 19.4573 43.0373 19.5151 43.0043 19.5954C42.9337 19.7606 42.877 19.8738 42.877 19.9448C42.877 20.0157 42.8534 20.4687 42.6552 20.7611C42.5843 20.865 42.504 21.0396 42.4474 21.1575C42.3295 21.365 42.2255 21.5308 42.2019 21.6242C42.1549 21.7894 42.1219 22.2423 42.1219 22.2423C42.1219 22.2423 42.2258 22.1148 42.2635 22.0678C42.2066 22.1857 42.1453 22.313 42.0557 22.4075C42.1123 22.3602 42.2775 22.2423 42.556 21.9969C42.943 21.6714 43.5472 21.1239 44.2837 20.6902C44.0615 20.7705 43.873 20.7705 43.7221 20.7941C43.84 20.6762 44.9019 19.4302 45.4588 19.3123C45.4926 19.2694 45.5094 19.2156 45.5061 19.1611L45.0291 19.1141L44.0615 19.3216L43.9203 18.575L43.2734 18.9666V18.9676Z" fill="#B18E3E"/>
<path fill-rule="evenodd" clip-rule="evenodd" d="M44.8119 23.2152C44.8119 23.2152 44.6843 23.3425 44.5664 23.6589C44.4756 23.5641 44.3978 23.4577 44.3349 23.3425C44.1604 23.05 43.8916 22.677 43.2638 22.8895C43.2545 22.6913 43.2401 22.5874 43.2638 22.4459C43.3677 22.4225 43.6838 22.1677 43.9999 21.7947C44.222 21.5399 44.4295 21.2472 44.5711 20.8744C44.6644 20.8035 44.8259 20.6856 45.0377 20.5487C45.3398 20.3412 45.7032 20.0578 45.7598 19.7417C45.6183 19.7983 45.3162 19.9399 44.8629 19.9165C45.0377 19.8363 45.3065 19.7513 45.2736 19.402C45.3445 19.3547 45.4011 19.3217 45.4011 19.3217C45.3479 19.3039 45.292 19.2959 45.2359 19.298C45.2263 19.2651 45.2123 19.2181 45.132 19.2414C45.0517 19.2648 45.0387 19.2651 45.0281 19.298C44.9951 19.3077 44.8865 19.298 44.8063 19.355C44.726 19.4119 44.5042 19.6001 44.4193 19.6331C44.4522 19.5765 44.4992 19.4919 44.4992 19.4919C44.4992 19.4919 44.2681 19.5152 44.1029 19.5852C43.8008 19.6891 43.4517 19.878 43.0977 20.0618C43.1306 20.0052 43.1449 19.9685 43.1683 19.9579C43.1916 19.9473 43.2485 19.9346 43.2485 19.9249C43.2485 19.9153 43.2252 19.8316 43.2392 19.7977C43.345 19.5735 43.47 19.3587 43.6125 19.1559C43.7777 18.9337 43.8107 18.6176 43.8107 18.6176L44.5328 18.2543L46.5622 17.7876L47.8791 17.8679L47.7139 18.7788L46.9361 20.3692L46.2707 21.818L45.5106 22.7056L44.8122 23.2152H44.8119Z" fill="#543E26"/>
<path fill-rule="evenodd" clip-rule="evenodd" d="M48.1018 19.273C48.1018 19.273 47.3087 20.2545 47.0869 20.4057C47.2284 20.1036 48.1018 18.3054 48.4179 17.8052C48.3472 17.7485 48.2526 17.7485 48.4745 16.8718C48.2859 17.3152 48.2197 17.5466 48.0641 17.6645C47.9086 17.7824 47.8893 17.7448 47.7841 17.7448C47.804 17.7089 47.8121 17.6677 47.8074 17.6269C47.8074 17.6269 47.142 17.5466 46.6874 17.5466C46.2329 17.5466 45.3331 17.7921 44.8325 17.9903C44.4361 18.1555 44.2143 18.1555 44.0728 18.2591C43.9312 18.377 43.8509 18.5045 43.78 18.5375C43.7234 18.5705 43.4546 18.6554 43.393 18.745C43.3363 18.8384 43.2421 18.9432 43.2421 18.9668C43.2421 18.9905 43.2184 19.0238 43.2894 18.9998C43.3127 18.9905 43.4875 18.8959 43.6857 18.778C43.9545 18.6271 44.2803 18.4526 44.5164 18.3487C45.1912 18.0796 45.4037 18.1268 45.7055 18.0702C46.0216 18.0136 46.4749 17.8814 46.7767 17.8814C47.0788 17.872 47.65 17.8814 47.7822 17.905C47.7256 17.9523 47.6783 18.0089 47.702 18.2071C47.702 18.2637 47.6547 18.325 47.6086 18.4619C47.4674 18.8489 47.1983 19.4908 47.0486 19.8165C46.8411 20.2598 46.6053 20.6328 46.4886 20.864C46.3719 21.0952 46.1153 21.704 45.8611 22.0297C45.6069 22.3555 45.474 22.5536 45.3944 22.6246C45.3147 22.6955 44.7429 23.1152 44.7855 23.2664C44.8894 23.2334 45.5456 22.9864 46.0219 22.45C46.4982 21.9137 46.5931 21.5864 46.9659 21.2936C47.3386 21.0009 47.6313 20.5103 47.8059 20.1046C47.9521 19.7269 47.9191 19.609 48.103 19.2739L48.1018 19.273Z" fill="#806031"/>
<path fill-rule="evenodd" clip-rule="evenodd" d="M31.0122 26.5994C31.0122 26.5994 30.9082 27.0287 30.6721 27.2412C30.4409 27.449 30.0303 27.6283 29.9833 27.9776C29.9267 28.3267 30.394 28.5015 30.394 28.5015C30.394 28.5015 30.1388 28.9215 30.1388 29.2376C30.1388 29.5634 30.1295 29.6246 30.1625 29.9361C30.1251 29.9601 30.0932 29.992 30.0691 30.0294C30.0691 30.0294 30.0925 30.3315 30.324 30.52C30.5554 30.7086 30.7533 30.8221 30.8712 30.7748C30.8892 30.8133 30.905 30.8528 30.9185 30.893C30.9185 30.893 31.0934 30.4494 31.2113 30.0624C31.3292 29.666 31.4331 29.7223 31.4801 29.1891C31.5271 28.6558 32.0401 27.7403 32.0401 27.7403L32.3901 26.9578L31.8192 26.5142L31.0122 26.5991V26.5994Z" fill="#B6903C"/>
<path fill-rule="evenodd" clip-rule="evenodd" d="M32.0733 27.3684C31.9556 27.4893 31.8469 27.6186 31.7482 27.7554C31.5973 27.9633 31.4794 28.1518 31.2576 28.2324C31.0357 28.3129 30.8942 28.3123 30.9082 28.5345C30.9222 28.7566 31.13 28.8505 31.2479 28.9638C31.3755 29.0817 31.4794 29.2799 31.4228 29.502C31.4934 29.469 31.621 29.4311 31.7389 29.1763C31.8568 28.9215 32.6816 27.3687 32.6816 27.3687H32.0733V27.3684Z" fill="#685026"/>
<path fill-rule="evenodd" clip-rule="evenodd" d="M35.3266 23.7863C35.3266 23.7863 35.3973 23.5978 35.3266 23.4609C35.2557 23.3194 34.8264 23.2721 34.6139 23.1115C34.3921 22.9463 34.1229 22.8315 33.9011 22.904C33.9341 22.8238 34.0663 22.6489 33.9578 22.6113C33.8538 22.5783 33.4671 22.7528 33.3632 22.8331C33.2593 22.9134 33.0232 23.0076 32.9762 23.0646C32.9292 23.1215 32.8486 23.2298 32.8014 23.1825C32.7541 23.1495 32.7307 23.0646 32.6505 23.1115C32.5702 23.1585 32.1838 23.4749 32.1126 23.6591C32.0413 23.8433 31.8811 24.2539 31.3998 24.7209C30.9185 25.1879 30.7107 25.4903 30.8523 25.6648C30.9938 25.8393 31.0601 25.7121 31.0837 25.863C31.1019 26.0111 31.0939 26.1613 31.0601 26.3066C31.0035 26.5521 30.9092 26.7832 31.0364 26.8305C31.3622 26.9344 31.6786 26.7372 31.7492 26.7976C31.8907 26.9248 31.6689 27.3828 32.004 27.4724C32.344 27.5657 32.6791 27.3921 32.6791 27.3921L33.9154 26.7266L35.1048 26.0991L35.7133 24.8954L35.387 23.8902L35.3248 23.7863H35.3266Z" fill="#D4B968"/>
<path fill-rule="evenodd" clip-rule="evenodd" d="M34.1599 26.6605C34.1599 26.6605 33.9521 26.3444 34.2072 26.0657C34.4623 25.7869 34.8253 25.6693 34.9669 25.4948C34.9399 25.4615 34.9038 25.437 34.863 25.4242C34.9569 25.256 35.1003 25.1208 35.2736 25.0368C35.203 24.9662 35.1084 24.9096 35.0048 24.9096C34.7734 24.9096 34.6315 25.0511 34.4193 25.0511C34.2118 25.0511 34.1882 24.9472 34.1882 24.9472C34.1882 24.9472 34.5376 24.9142 34.5043 24.7584C34.4713 24.5932 34.4109 24.5932 34.4109 24.5932C34.4109 24.5932 35.0857 24.3132 35.2036 24.1639C35.3215 24.0145 35.3075 23.8381 35.3312 23.7675C35.4111 23.7675 35.8784 23.522 36.0673 23.6259C36.2561 23.7299 36.1239 24.013 36.1239 24.013C36.1239 24.013 36.6954 23.5833 36.9866 23.1621C37.2414 23.1857 37.3599 22.9875 37.5466 22.9875C37.778 22.9875 38.1414 23.3036 38.212 23.9784C38.2593 24.3654 38.3299 24.5873 38.2593 25.2717C38.2263 25.6587 38.2356 26.485 38.3526 26.8951C38.4326 27.2208 38.6214 27.1878 38.6214 27.1878C38.5924 27.2871 38.535 27.3757 38.4562 27.4426C38.3287 27.5605 38.3147 27.8723 38.3287 27.9902C38.3475 28.0764 38.3712 28.1615 38.3996 28.245C38.3996 28.245 38.2487 28.4195 38.2108 28.5377C38.1778 28.6556 38.0222 28.7359 37.9087 28.7359C37.7951 28.7359 37.8521 28.7263 37.7012 28.7359C37.5503 28.7456 37.503 28.7689 37.4084 28.7359C37.3138 28.7029 37.2432 28.665 37.2812 28.3626C37.3142 28.0605 36.1155 27.3574 36.1155 27.3574L34.1555 26.6589L34.1599 26.6605Z" fill="#CCA849"/>
<path fill-rule="evenodd" clip-rule="evenodd" d="M31.9088 29.6433C31.9088 29.6433 32.3381 30.2145 34.1034 30.2145C34.9434 30.2145 35.2361 30.1343 35.4101 30.087C35.5989 30.0397 36.3067 29.7615 37.0194 28.9212C37.6613 28.1615 37.5197 27.8501 37.5197 27.8501L37.1464 27.7935L35.933 27.9587L32.3428 29.4878L31.9072 29.6433H31.9088Z" fill="#585136"/>
<path fill-rule="evenodd" clip-rule="evenodd" d="M33.2244 29.7847C33.2244 29.7847 31.6953 30.1247 31.6953 29.1572C31.6953 28.2133 32.6392 27.2222 32.8754 27.0476C33.1208 26.8728 33.706 26.6743 33.706 26.6743H35.1172L35.386 27.387L35.2681 28.9254L33.2244 29.7844V29.7847Z" fill="#252211"/>
<path fill-rule="evenodd" clip-rule="evenodd" d="M34.6365 26.9628C34.6365 26.9628 34.344 26.6937 33.6786 27.0561C33.0131 27.4186 32.4749 28.1762 32.4419 28.864C32.4089 29.4726 32.9421 29.9259 33.7728 29.9495C34.391 29.9729 34.764 29.9022 34.9529 29.8562C34.9056 29.7996 34.6601 29.4928 34.6601 29.4928L34.6368 26.9631L34.6365 26.9628Z" fill="#C3B378"/>
<path fill-rule="evenodd" clip-rule="evenodd" d="M34.3488 27.1133C34.3488 27.1133 34.2782 27.0567 34.0688 27.1699C33.8943 27.2632 33.6395 27.5099 33.4413 27.6845C33.3138 27.7884 33.2335 27.8353 33.1613 27.9156C32.8686 28.265 32.6231 28.8361 32.765 29.1192C32.9069 29.4023 33.3738 29.7281 34.5632 29.5062L34.3454 27.1136L34.3488 27.1133Z" fill="#E6D89C"/>
<path fill-rule="evenodd" clip-rule="evenodd" d="M33.9611 27.6987C33.9611 27.6987 33.7722 27.9914 33.7722 28.4587C33.7722 28.9353 34.0413 29.6951 35.0325 29.7517C35.7922 29.799 36.3018 28.6569 36.854 28.2132C37.274 27.8735 37.5288 27.8639 37.5288 27.8639C37.5288 27.8639 37.0995 27.3972 35.9527 26.7927C34.82 26.1838 33.5504 26.1036 32.8613 27.0382C33.1871 27.0145 34.2395 26.7454 34.2395 26.7454L34.7541 26.9106L33.9611 27.699V27.6987Z" fill="#252211"/>
<path fill-rule="evenodd" clip-rule="evenodd" d="M35.4434 28.317C35.4105 28.2464 35.3868 28.1518 35.5237 28.1285C35.6606 28.1051 35.7218 28.1188 35.7691 28.2218C35.8164 28.3248 35.8624 28.4106 35.7924 28.4532C35.7218 28.4909 35.5377 28.4532 35.4431 28.3164L35.4434 28.317ZM35.2217 27.6515C35.2217 27.6515 35.1744 27.6845 35.198 27.6186C35.2074 27.5386 35.2689 27.3967 35.4198 27.43C35.5707 27.4633 35.538 27.6282 35.5131 27.6755C35.4882 27.7228 35.3623 27.8027 35.2677 27.7688C35.2557 27.7657 35.2446 27.7599 35.2353 27.7517C35.226 27.7436 35.2188 27.7333 35.2142 27.7219C35.2095 27.7104 35.2077 27.698 35.2088 27.6856C35.2099 27.6733 35.2139 27.6614 35.2204 27.6509L35.2217 27.6515Z" fill="#6F674D"/>
<path fill-rule="evenodd" clip-rule="evenodd" d="M22.4463 27.9532C22.4463 27.9532 22.8196 28.2332 23.2533 28.2223C23.6826 28.2126 24.2349 27.7693 24.4897 27.4859C24.6406 27.3207 24.7697 27.1461 24.9097 27.0092C25.0279 26.8913 25.1078 26.8347 25.1645 26.7544C25.2447 26.6611 25.3297 26.4856 25.3723 26.4287C25.2684 26.509 25.1175 26.6508 24.9616 26.7451C24.8107 26.8384 24.485 27.0139 24.3528 27.0612C24.2255 27.1085 22.9039 27.8079 22.9039 27.8079L22.4463 27.9532Z" fill="#AC924C"/>
<path fill-rule="evenodd" clip-rule="evenodd" d="M23.0166 24.466C23.0166 24.466 23.2241 24.3244 23.6254 24.2345C24.0125 24.1412 24.7912 24.0693 24.7912 24.0693L25.433 24.3493L25.6878 25.3169L25.2211 26.3224L24.6266 26.6957L23.9515 25.6103L23.0182 24.4679L23.0166 24.466Z" fill="#9F8E57"/>
<path fill-rule="evenodd" clip-rule="evenodd" d="M22.1772 25.3298L21.9551 25.4956C21.9551 25.4956 22.012 25.3917 22.059 25.0756C22.106 24.7595 22.3517 23.9901 22.7105 23.5464C23.0692 23.1028 23.0598 23.1264 23.0598 23.1264C23.0268 23.1204 22.9929 23.1215 22.9604 23.1296C22.9278 23.1377 22.8973 23.1526 22.871 23.1734C22.9183 23.0689 23.2204 22.6955 23.5225 22.5089C23.8246 22.3222 23.9425 22.2634 24.2586 22.4155C24.5746 22.5677 24.6549 22.6467 24.8864 22.6374C25.1179 22.628 25.3157 22.3826 25.3157 22.3826C25.3157 22.3826 25.363 22.5334 25.1885 22.8828C25.0139 23.2322 24.3248 23.9447 24.3248 23.9447L22.89 24.9262L22.1772 25.3307V25.3298Z" fill="#EAC970"/>
<path fill-rule="evenodd" clip-rule="evenodd" d="M23.2386 24.3479C23.2386 24.3479 24.277 24.4895 24.5931 24.1971C24.6025 24.23 24.6404 24.23 24.6404 24.2537C24.6379 24.2715 24.6296 24.288 24.6168 24.3007C24.6512 24.2952 24.6859 24.292 24.7207 24.2913C24.7622 24.3037 24.805 24.3116 24.8482 24.315C24.8831 24.3142 24.9178 24.311 24.9521 24.3053C24.9489 24.3288 24.9409 24.3513 24.9287 24.3716C24.9165 24.392 24.9004 24.4096 24.8812 24.4235C24.9285 24.4235 24.9745 24.4329 24.9745 24.4705C24.9745 24.5082 24.9839 24.6217 24.9273 24.6454C24.8804 24.6583 24.8304 24.6549 24.7857 24.6357C24.7894 24.7251 24.8137 24.8124 24.8566 24.8908C24.95 25.0654 25.1491 25.2642 25.4166 25.2069C25.4166 25.2069 25.5579 25.5467 24.9633 26.3017C24.8834 26.4056 24.7981 26.5472 24.6945 26.6651C24.6536 26.7543 24.6223 26.8477 24.6012 26.9435C24.6012 26.9435 25.6067 26.5565 25.8945 25.6739C26.1873 24.7866 26.2439 23.9136 26.1873 23.0973C26.1776 22.8658 26.14 22.7009 26.0833 22.5827C25.9418 22.2899 25.5451 22.3372 25.3849 22.5024C25.1534 22.7339 24.7664 23.3095 24.2285 23.7058C23.681 24.1022 23.6576 24.1725 23.2373 24.3479H23.2386Z" fill="#D7BC6B"/>
<path fill-rule="evenodd" clip-rule="evenodd" d="M21.9925 25.6224C21.9925 25.6224 21.7943 25.7403 21.6904 26.1824C21.5865 26.6354 21.7838 27.1876 21.8979 27.3621C22.0121 27.5367 22.2713 28.0136 22.8089 28.0372C22.9419 28.0365 23.0735 28.0092 23.1959 27.957C23.3836 27.8709 23.5596 27.7615 23.7198 27.6312C23.9513 27.4567 24.1398 27.3058 24.1162 27.2915C24.0596 27.2679 22.691 26.1351 22.691 26.1351L22.1764 25.5608L21.9922 25.623L21.9925 25.6224Z" fill="#585136"/>
<path fill-rule="evenodd" clip-rule="evenodd" d="M23.2866 27.5005C23.2866 27.5005 23.5651 27.4772 23.7303 27.3733C23.8955 27.2694 22.7627 26.1462 22.7627 26.1462L22.843 27.3596L23.2866 27.5005Z" fill="#453A25"/>
<path fill-rule="evenodd" clip-rule="evenodd" d="M22.0818 25.5371C22.0818 25.5371 21.9402 25.8062 21.9402 25.8771C21.9166 26.1083 21.9875 26.8351 22.0441 27.0662C22.1008 27.3117 22.4075 27.6844 22.8042 27.6844C23.0493 27.6844 23.3894 27.5335 23.3894 27.4959C23.3894 27.4486 23.04 27.4025 22.9457 27.2267C22.8891 27.1334 22.8655 26.9013 22.8524 26.6667C22.8431 26.5159 22.8431 26.3507 22.8997 26.2934C23.0272 26.1519 23.0506 25.7459 23.0506 25.7459L23.5035 24.9043H22.9078L22.195 25.3479L22.0818 25.5371Z" fill="#84754B"/>
<path fill-rule="evenodd" clip-rule="evenodd" d="M21.9082 25.7969C21.9082 25.7969 22.3749 25.1788 22.7955 25.0369C23.2161 24.895 23.4043 24.9803 23.4043 24.9803L23.1588 25.6081L22.8095 25.9951L22.8331 26.1933C22.8331 26.1933 22.7762 26.7172 23.1256 27.0806C23.4749 27.4439 23.7344 27.4299 23.8856 27.4299C24.0368 27.4299 24.4708 27.3024 24.6926 26.7785C24.8908 26.2879 25.0559 25.6585 24.6596 25.0276C24.2723 24.3998 23.5882 24.3755 23.4559 24.3755C23.3237 24.3755 22.2856 24.4274 21.9082 25.796V25.7969Z" fill="#252211"/>
<path fill-rule="evenodd" clip-rule="evenodd" d="M33.8907 27.8968C33.7161 27.8166 33.8813 27.3259 34.0559 27.1747C34.2304 27.0236 34.4522 26.8493 34.8396 26.8254C34.9808 26.816 35.1177 26.9056 35.0944 27.0002C35.0614 27.1747 34.8159 27.4202 34.5941 27.5947C34.2874 27.8355 34.0889 27.9864 33.8907 27.8968Z" fill="#F7F7E7"/>
<path fill-rule="evenodd" clip-rule="evenodd" d="M24.4515 25.221C24.5791 25.2117 24.7443 25.3144 24.7773 25.4525C24.8103 25.6034 24.697 25.9055 24.4515 25.9055C24.2533 25.9055 24.1494 25.66 24.1494 25.5894C24.1516 25.5313 24.1679 25.4747 24.1967 25.4242C24.206 25.4099 24.2297 25.2447 24.4515 25.221Z" fill="#F8F6DE"/>
<path fill-rule="evenodd" clip-rule="evenodd" d="M22.6105 25.3298C22.6105 25.3298 22.2847 25.4807 22.1339 25.7965C22.026 26.0297 21.9934 26.2906 22.0405 26.5431C22.0642 26.661 22.1821 26.9535 22.2623 27.0574C22.3426 27.1613 22.4512 27.2322 22.5315 27.2226C22.6117 27.2129 22.7766 27.0007 22.7766 26.8735C22.7766 26.7463 22.7863 26.2081 22.9418 25.9153C23.0787 25.6229 22.6114 25.3301 22.6114 25.3301L22.6105 25.3298Z" fill="#D4C38B"/>
<path fill-rule="evenodd" clip-rule="evenodd" d="M22.6585 25.3059C22.6019 25.3389 22.5077 25.3862 22.531 25.4475C22.5546 25.5041 22.7528 25.5408 22.8237 25.6789C22.904 25.8205 22.904 25.9713 22.8804 26.0423C22.942 26.013 22.998 25.9729 23.0456 25.924C23.1495 25.8061 23.2767 25.6459 23.3853 25.6459C23.4562 25.6459 23.5269 25.6789 23.5931 25.6789C23.697 25.6789 23.8006 25.6459 23.8149 25.5374C23.8383 25.3958 23.6168 25.2683 23.4892 25.2919C23.5129 25.1986 23.5458 25.0608 23.4419 24.9662C23.338 24.8716 23.0126 25.0371 22.9417 25.0844C22.8707 25.1317 22.6585 25.3062 22.6585 25.3062V25.3059Z" fill="#E2D59D"/>
<path fill-rule="evenodd" clip-rule="evenodd" d="M30.1578 35.2216L30.8563 35.0154L31.0544 35.1569C31.0544 35.1569 31.1957 35.459 31.4178 35.4967C31.3469 35.6476 31.1627 35.7767 31.1724 35.8837C31.182 35.9907 31.2763 36.0725 31.2763 36.0725C31.2763 36.0725 30.6484 37.1107 31.8851 38.157C31.5924 38.2749 31.2196 38.437 31.0215 38.5303C31.1627 38.5633 31.4648 38.6237 31.5924 38.7381C31.7199 38.8526 31.7199 38.889 31.8378 38.96C31.9557 39.0309 32.0264 39.1252 32.003 39.1675C31.9228 39.1202 31.6536 38.9789 31.6067 39.1108C31.5597 39.2428 30.4409 39.1911 30.4409 39.1911L28.5531 39.5545C28.5531 39.5545 28.6237 39.3656 28.4256 39.1911C28.1944 38.9836 27.9113 39.2004 27.6092 38.9693C27.2128 38.6672 27.1985 38.3178 27.0713 38.1859C27.1985 38.1056 27.4583 37.9877 28.0765 37.9059C28.0528 37.8586 27.9726 37.7171 28.0199 37.5898C28.0765 37.4246 28.3123 37.3207 28.2417 37.1232C28.3456 37.0995 28.3926 37.0995 28.6524 36.7738C28.8978 36.448 29.0487 36.3774 29.2376 36.3538C29.4264 36.3301 29.5396 36.3538 29.889 36.028C30.1342 35.7969 30.0542 35.5987 30.0542 35.5987C30.0542 35.5987 30.2144 35.5468 30.1581 35.221L30.1578 35.2216Z" fill="#CBAC5A"/>
<path fill-rule="evenodd" clip-rule="evenodd" d="M28.0954 35.3268C28.1047 35.2795 28.1427 35.2558 28.3975 35.2795C28.6523 35.3031 30.2664 35.1286 30.7053 35.105C31.149 35.072 32.7111 35.0953 33.4712 35.2558C34.2312 35.4163 35.0003 35.6052 35.373 35.6994C35.7463 35.8033 35.8639 35.8407 35.8496 35.8879C35.8403 35.9352 35.7563 35.9813 35.7081 35.9682C35.6611 35.9589 34.4244 35.5812 34.0424 35.5016C33.6603 35.4219 32.3384 35.2089 31.6157 35.2216C30.9409 35.2313 30.6717 35.2123 30.1009 35.2782C29.5296 35.3492 28.5857 35.4434 28.3026 35.4058C28.0226 35.3728 28.0805 35.3728 28.0948 35.3255L28.0954 35.3268Z" fill="#D6BC6F"/>
<path fill-rule="evenodd" clip-rule="evenodd" d="M31.8937 39.0258C31.8937 39.0258 32.8612 39.5497 33.2106 40.1915C33.4654 40.6681 33.0597 40.9042 33.0597 40.9042C33.0597 40.9042 33.6073 40.9042 33.5363 41.2063C33.5034 41.3948 32.5924 41.9044 31.9836 42.1735C31.3654 42.4426 31.3891 42.4286 31.087 42.4756C30.7942 42.5229 29.9919 42.3823 29.8267 42.6172C29.6615 42.8521 29.7333 43.0941 29.7794 43.1317C29.8267 43.1647 30.209 43.212 30.209 43.212C30.209 43.212 30.1288 43.4338 29.3361 43.4575C28.5433 43.4811 28.3449 43.5374 28.2976 43.6227C28.2503 43.7026 28.4485 43.6556 28.8121 43.716C29.1755 43.7726 29.6851 43.8093 29.6851 43.8093C29.6851 43.8093 29.5199 43.9509 29.0906 44.0641C28.5997 44.1914 27.8303 44.3096 27.5991 44.4511C27.717 44.5314 27.8919 44.6493 27.9725 44.6586C27.7743 44.7059 27.4955 44.8098 27.4486 44.8475C27.5192 44.8948 27.6137 44.9514 27.6137 44.9514C27.6137 44.9514 27.2171 45.428 26.9859 45.5462C26.7548 45.6645 25.4239 46.2823 24.9659 46.1644C23.8238 45.8623 23.6823 44.6117 23.4038 44.5174C22.9838 44.3759 22.7856 44.6586 22.4126 44.4605C22.5778 44.3426 22.6677 44.2719 22.8423 44.1917C22.6534 44.0983 21.6765 43.4789 21.6765 43.4789C21.5744 43.2563 21.461 43.0389 21.3368 42.8278C21.148 42.5021 20.8701 42.0678 20.6617 41.6854C20.2087 40.8454 20.1851 40.4584 19.7744 39.9818C19.8453 39.8885 20.0905 39.9015 20.0905 39.9015L23.5314 41.0343L29.6325 41.211L31.2192 38.9458L31.894 39.0261L31.8937 39.0258Z" fill="#DFC677"/>
<path fill-rule="evenodd" clip-rule="evenodd" d="M22.8564 42.4803C22.8933 42.5213 22.9362 42.5563 22.9837 42.5842C23.1019 42.6645 23.2764 42.759 23.3944 42.9003C23.4416 42.8297 23.5596 42.7021 23.7677 42.9003C23.9758 43.0985 24.2344 42.9572 24.3952 43.0042C24.5604 43.0611 24.5697 43.0845 24.5697 43.0845C24.5697 43.0845 24.6631 43.0042 24.8718 42.9193C24.9994 42.872 25.1503 42.839 25.3155 42.792C25.4664 42.759 25.6316 42.7117 25.7451 42.7117C25.849 42.7824 26.2217 43.1784 27.7179 42.5938C29.1291 42.0463 29.4545 41.985 29.6906 42.0696C29.7143 42.013 29.7379 41.9044 30.1013 41.9187C30.1013 41.7678 29.7992 41.2533 29.7992 41.2533L28.1332 40.6824H27.222L24.4895 41.1826L22.9753 42.0466L22.8574 42.4821L22.8564 42.4803Z" fill="#C4A859"/>
<path fill-rule="evenodd" clip-rule="evenodd" d="M21.9453 41.5222C21.9453 41.5222 21.9783 41.777 22.356 42.0461C22.7293 42.3149 22.8466 42.4755 22.8466 42.4755C22.8466 42.4755 22.9175 42.3821 22.9742 42.2869C23.0308 42.183 23.0781 42.0651 23.1723 42.0321C23.3612 41.9519 23.7905 42.1028 23.8851 42.0791C23.9654 42.0558 23.9417 41.8906 24.0266 41.8906C24.2248 41.8809 24.3521 42.0178 24.423 42.0178C24.4939 42.0178 24.6682 42.0085 24.6918 41.9708C24.7154 41.9332 24.7248 41.5412 24.9939 41.3524C25.2866 41.1448 25.6454 41.2345 25.7406 41.2817C25.7406 41.3524 25.7499 41.5272 25.9387 41.5365C26.1276 41.5459 26.1462 41.5129 26.3121 41.5695C26.4779 41.6261 26.6754 41.5602 26.765 41.8383C26.8453 41.815 27.0342 41.7913 26.9869 41.5222C27.0802 41.4516 27.1617 41.4043 27.3602 41.1259C27.4075 41.0553 27.4874 40.975 27.549 40.8711C27.7142 40.8711 27.9124 40.8381 28.1766 41.0693C28.0963 41.1259 28.049 41.1626 28.0257 41.2201C28.0947 41.2885 28.1578 41.3628 28.2142 41.442C28.2851 41.5353 28.3324 41.6498 28.422 41.6734C28.6202 41.7301 28.9459 41.6498 29.3093 41.6734C29.6587 41.6971 29.9511 41.8243 30.0787 41.9046C30.126 41.8812 30.126 41.8716 30.2439 41.8953C30.3618 41.9189 30.4514 41.9282 30.3242 41.7773C30.3948 41.8103 30.475 41.8813 30.546 41.8103C30.6169 41.7394 30.6732 41.6358 30.8714 41.6121C31.0696 41.5885 31.1405 41.6215 31.2208 41.414C31.3247 41.1592 30.966 41.1592 30.966 41.1592C30.966 41.1592 31.1312 41.008 31.3154 40.8098C31.5372 40.6023 31.792 40.3332 31.8533 40.0028C31.9572 39.3939 31.3626 39.314 31.3626 39.314L28.479 40.2013L24.9534 40.0264L21.9472 41.5225L21.9453 41.5222Z" fill="#927D49"/>
<path fill-rule="evenodd" clip-rule="evenodd" d="M19.3542 33.1925C19.3542 33.1925 19.2609 33.3104 19.2034 33.5888C19.1458 33.8673 19.1704 33.8343 19.1231 34.0325C19.0758 34.2307 18.495 36.2035 18.7127 36.8689C18.9305 37.5344 19.3076 37.7799 19.5434 38.3178C19.5907 38.4357 19.6367 38.5067 19.6613 38.6106C19.7416 38.9597 19.671 39.2288 19.7652 39.5782C19.7982 39.6961 19.8834 39.833 20.0107 39.9745C20.2907 40.267 20.7471 40.5454 20.944 40.7436C21.2221 41.0364 21.6188 41.6312 22.1237 41.6875C22.3928 41.7205 22.7752 41.6073 23.0913 41.4187C23.3713 41.2439 23.5443 40.9987 23.838 40.8587C24.0455 40.7548 24.2673 40.7172 24.4655 40.6699C24.8761 40.5896 25.2491 40.5765 25.471 40.6226C25.8107 40.6935 26.613 40.939 27.0576 40.939C27.405 40.9334 27.7505 40.8859 28.0865 40.7974C28.7613 40.5993 29.5776 40.2592 30.1158 40.1083C30.4319 40.015 30.6867 39.9904 30.9465 39.9338C31.3901 39.8299 31.7628 39.6883 31.9753 39.4192C31.8338 39.254 31.6592 38.9992 30.715 39.0085C29.6439 39.0321 28.4072 39.6267 27.7984 39.7213C27.1895 39.8159 26.9254 39.8958 26.2456 39.6503C25.5792 39.4024 25.5571 39.2384 25.5571 39.2384C25.5571 39.2384 24.8575 38.749 24.5647 37.5014C24.2719 36.2539 24.5647 35.3448 25.3247 34.4808C25.5229 34.259 25.4756 34.0608 25.4756 34.0608C25.4756 34.0608 25.9759 33.386 25.839 32.7541C25.6881 32.1263 24.7206 32.2538 24.7206 32.2538L19.3546 33.1925H19.3542Z" fill="#6E6342"/>
<path fill-rule="evenodd" clip-rule="evenodd" d="M20.1618 35.2925C20.1202 35.3707 20.1006 35.4588 20.1051 35.5473C20.1145 35.6745 20.1524 35.8397 20.5345 36.2127C20.8602 36.5381 20.7893 36.9015 20.7893 36.9015C20.7893 36.9015 20.9532 36.9345 21.3981 36.7263C21.7475 36.5612 21.8648 36.8539 21.8648 36.8539C21.9665 36.8006 22.0767 36.7654 22.1905 36.75C22.2936 36.7405 22.3934 36.7086 22.4829 36.6567C22.4829 36.6567 22.8936 37.0766 23.2523 37.2748C23.5781 37.4497 23.7669 37.5676 23.9274 37.4497C24.0783 37.3457 24.0783 37.1333 24.0687 37.039C24.0312 36.952 23.9838 36.8696 23.9274 36.7935C23.8235 36.6427 23.6583 36.4678 23.6474 36.3269C23.6238 36.0015 23.8929 35.6142 23.836 35.5199C23.779 35.4256 23.5672 35.402 23.0433 35.5908C22.5007 35.77 20.1596 35.2934 20.1596 35.2934L20.1618 35.2925Z" fill="#39331F"/>
<path fill-rule="evenodd" clip-rule="evenodd" d="M21.3976 37.4025C21.3976 37.4025 21.1289 37.1477 21.2232 35.9111C21.3372 35.9094 21.4511 35.9205 21.5628 35.944C21.5628 35.944 21.7093 36.9022 21.3976 37.4025Z" fill="#292311"/>
<path fill-rule="evenodd" clip-rule="evenodd" d="M19.4818 32.2483C19.5193 32.2205 19.5541 32.1893 19.5857 32.155C19.4924 32.3295 19.0615 33.0279 19.4109 34.1277C19.7602 35.2225 20.6379 36.0388 21.7187 36.0768C22.7995 36.1147 23.3676 35.5858 24.0172 34.7931C24.272 34.4771 24.5647 34.0804 24.8242 33.8116C25.2112 33.3913 25.5133 33.2734 25.5133 32.8677C25.5133 32.037 24.6637 31.664 23.413 31.2913C22.1623 30.9186 21.0342 30.9647 20.449 31.2198C19.8782 31.4979 19.6327 31.7907 19.4815 32.2486L19.4818 32.2483Z" fill="#252211"/>
<path fill-rule="evenodd" clip-rule="evenodd" d="M23.498 37.7751L23.5913 37.7279C23.5913 37.7279 23.6147 37.3545 23.7658 37.3645C23.9167 37.3881 23.9876 37.5866 23.9733 37.6572C23.964 37.7279 23.9264 37.8461 23.7752 37.8318C23.577 37.8364 23.4971 37.7751 23.4971 37.7751H23.498Z" fill="#3F3824"/>
<path fill-rule="evenodd" clip-rule="evenodd" d="M23.0781 36.1893C23.0781 36.1893 23.1715 36.1563 23.2856 36.2695C23.379 36.2695 23.7859 36.2223 23.9135 36.3025C24.041 36.3828 24.0787 36.4534 24.0787 36.4534C24.0787 36.4534 23.602 36.5573 23.3423 36.4534C23.0781 36.3638 23.0781 36.1893 23.0781 36.1893Z" fill="#2D2815"/>
<path fill-rule="evenodd" clip-rule="evenodd" d="M25.1785 36.2599C25.1785 36.2363 24.9237 36.0618 24.6547 36.0048C24.6074 35.9955 24.5977 36.0285 24.5613 36.0285C24.5377 36.0192 24.5284 35.9482 24.5284 35.9482L24.3753 36.0288C24.3753 36.0288 24.3517 36.0618 24.4319 36.1221C24.5025 36.1787 24.6208 36.226 24.6537 36.3202C24.6867 36.4145 24.6867 36.4474 24.701 36.4618C24.7103 36.4711 24.8755 36.4618 24.9558 36.4145C25.036 36.3672 25.1872 36.2901 25.1776 36.259L25.1785 36.2599Z" fill="#82764F"/>
<path fill-rule="evenodd" clip-rule="evenodd" d="M22.7949 37.2182C22.7949 37.2182 22.8419 36.8928 23.1583 36.8785C23.4837 36.8548 23.5453 37.1709 23.5453 37.1709L23.3565 37.3598C23.3565 37.3551 23.2149 37.1569 22.7965 37.2182H22.7949Z" fill="#2D2816"/>
<path fill-rule="evenodd" clip-rule="evenodd" d="M24.8484 35.8163C24.8484 35.8163 24.6735 36.0052 24.2868 36.0618C24.2539 36.0145 24.1829 35.9202 24.2868 35.7693C24.3907 35.6183 24.5087 35.571 24.6266 35.618C24.6786 35.6264 24.7271 35.6496 24.7664 35.6847C24.8057 35.7198 24.8342 35.7655 24.8484 35.8163Z" fill="#574F35"/>
<path fill-rule="evenodd" clip-rule="evenodd" d="M25.5604 36.0478C25.5701 36.0005 25.5371 35.9911 25.5604 35.9675C25.5838 35.9439 25.7116 35.8969 25.7353 35.9202C25.7446 35.9299 25.7353 35.9675 25.7353 36.0135C25.7353 36.0596 25.7353 36.1069 25.7116 36.1408C25.6786 36.188 25.5844 36.2117 25.5371 36.1977C25.4898 36.1837 25.4805 36.1174 25.4805 36.1044C25.5038 36.095 25.5604 36.0714 25.5604 36.0478ZM26.3662 35.5382C26.3662 35.5146 26.4465 35.4673 26.4938 35.4673C26.5644 35.4673 26.5644 35.5239 26.574 35.5382C26.5974 35.5475 26.5974 35.5286 26.621 35.5712C26.6446 35.6138 26.6779 35.6891 26.654 35.7364C26.63 35.7836 26.5361 35.8163 26.5127 35.807C26.4798 35.7833 26.3758 35.5712 26.3662 35.5382Z" fill="#82764F"/>
<path fill-rule="evenodd" clip-rule="evenodd" d="M24.7441 36.1563C24.7441 36.1563 24.8481 36.1797 24.9896 36.2979C24.9423 36.3308 24.8714 36.3685 24.8714 36.3685C24.8714 36.3685 24.8621 36.2599 24.7441 36.156V36.1563Z" fill="#6E6342"/>
<path fill-rule="evenodd" clip-rule="evenodd" d="M24.5135 35.118C24.4899 35.0946 24.5841 35.038 24.6407 35.0473C24.6974 35.0567 24.721 35.0946 24.7823 35.104C24.8436 35.1133 24.8532 35.0803 24.8756 35.0567C24.898 35.033 24.9796 35.0473 24.9936 35.0567C25.0023 35.0671 25.0102 35.0781 25.0172 35.0897C25.0182 35.0717 25.0229 35.0542 25.031 35.0381C25.039 35.022 25.0504 35.0078 25.0642 34.9963C25.0823 34.983 25.1032 34.974 25.1253 34.9699C25.1473 34.9658 25.1701 34.9667 25.1917 34.9727C25.2011 35.0057 25.2484 35.1236 25.239 35.1472C25.2297 35.1709 25.0881 35.2042 25.0642 35.1802C25.0878 35.2371 25.1917 35.3551 25.2057 35.3784C25.2197 35.4017 25.1018 35.4587 25.0548 35.4493C24.9889 35.4447 24.5829 35.2085 24.5123 35.1189L24.5135 35.118ZM25.1317 34.3345C25.123 34.3108 25.1062 34.2907 25.0844 34.2779C25.0514 34.2686 24.9428 34.2779 24.9428 34.3345C24.9428 34.3912 25.0362 34.7079 25.141 34.8728C25.2593 35.038 25.3392 35.1746 25.4195 35.2126C25.4447 35.224 25.4733 35.2255 25.4996 35.2168C25.5258 35.208 25.5478 35.1896 25.561 35.1653C25.5704 35.1416 25.594 34.9671 25.5847 34.5564C25.5754 34.1457 25.561 33.7493 25.5374 33.7256C25.5138 33.702 25.4195 33.7023 25.3865 33.7493C25.3535 33.7963 25.141 34.2639 25.1314 34.3345H25.1317Z" fill="#585136"/>
<path fill-rule="evenodd" clip-rule="evenodd" d="M24.7116 36.7511C24.7116 36.7511 24.5464 36.6472 24.3858 36.7181C24.2349 36.789 24.2443 37.0674 24.2443 37.0674C24.2782 37.0807 24.3149 37.0855 24.3511 37.0813C24.3873 37.0772 24.422 37.0643 24.4521 37.0437C24.556 36.9731 24.688 36.8553 24.7116 36.7514V36.7511Z" fill="#574F35"/>
<path fill-rule="evenodd" clip-rule="evenodd" d="M25.022 37.1238C25.0127 37.0305 24.9287 37.0305 24.9287 36.9823C24.9345 36.9592 24.9478 36.9388 24.9666 36.9242C24.9854 36.9097 25.0085 36.9018 25.0323 36.902C25.0796 36.902 25.1256 36.9586 25.1835 36.9953C25.2401 37.0283 25.3251 37.0887 25.3344 37.1605C25.3437 37.2324 25.2411 37.4294 25.1269 37.4294C25.0127 37.4294 25.0466 37.2169 25.023 37.1226L25.022 37.1238ZM25.933 36.9963C25.933 36.9963 25.7441 37.0529 25.7581 36.9963C25.7721 36.9396 25.8151 36.9256 25.8764 36.9256C25.9075 36.893 25.9494 36.8728 25.9943 36.8687C26.0199 36.8674 26.0452 36.8759 26.0649 36.8924C26.0649 36.8924 26.1924 36.8357 26.2301 36.8687C26.2677 36.9017 26.2397 36.9017 26.2631 36.9396C26.2928 36.9818 26.3123 37.0302 26.32 37.0812C26.32 37.1188 26.1784 37.1991 26.0649 37.1851C25.933 37.1568 25.9563 37.0199 25.933 36.9963ZM27.0324 36.7838C27.0324 36.7838 27.0891 36.8167 27.0421 36.8547C27.0091 36.8877 26.8439 36.948 26.702 36.9586C26.5605 36.9586 26.4332 36.982 26.4332 36.935C26.4332 36.888 26.5512 36.7934 26.6218 36.7698C26.6359 36.752 26.6539 36.7377 26.6744 36.7279C26.6949 36.7181 26.7173 36.7131 26.74 36.7131C26.7966 36.7131 27.0181 36.6895 27.0797 36.6802C27.1364 36.6705 27.1836 36.7035 27.1504 36.7508C27.1364 36.7838 27.0324 36.7838 27.0324 36.7838ZM27.3582 35.3265C27.3582 35.3265 27.2872 35.4774 27.2073 35.4774C27.127 35.468 27.127 35.4444 27.127 35.4207C27.127 35.3878 27.2073 35.3028 27.1976 35.2792C27.1743 35.2792 27.1174 35.2792 27.127 35.2226C27.127 35.1753 27.2073 35.1186 27.2779 35.1292C27.3313 35.0854 27.3977 35.0605 27.4668 35.0586C27.547 35.0586 27.6176 35.0819 27.6176 35.1292C27.6176 35.1765 27.5243 35.2801 27.4901 35.3041C27.4524 35.3417 27.4052 35.3663 27.3582 35.3274V35.3265ZM26.282 38.1157C26.282 38.1157 26.1887 38.1253 26.1887 38.1723C26.1887 38.196 26.212 38.196 26.2453 38.182C26.2645 38.1809 26.2835 38.1776 26.302 38.1723C26.3113 38.182 26.3113 38.2289 26.3822 38.2289C26.4405 38.2211 26.4966 38.2018 26.5474 38.1723C26.604 38.149 26.6513 38.125 26.6513 38.079C26.6277 37.9987 26.5804 37.9607 26.5098 37.9607C26.4736 37.9585 26.4375 37.9667 26.4059 37.9844C26.4059 37.9844 26.3822 37.9371 26.302 37.9844C26.2217 38.0317 26.231 38.0317 26.2547 38.0553C26.297 38.093 26.283 38.1176 26.283 38.1176L26.282 38.1157ZM25.7488 38.6066C25.7488 38.583 25.8667 38.5357 25.8997 38.55C25.9327 38.5593 26.0269 38.7386 26.0269 38.7575C26.0269 38.7812 25.909 38.8378 25.8617 38.8378C25.8144 38.8378 25.7345 38.7575 25.7345 38.7445C25.7345 38.7351 25.7911 38.7211 25.7911 38.7115C25.8051 38.6882 25.7488 38.6312 25.7488 38.6076V38.6066ZM25.3755 37.9175C25.3991 37.9082 25.3991 37.8845 25.4321 37.8609C25.4424 37.854 25.4542 37.8496 25.4665 37.848C25.4788 37.8464 25.4913 37.8476 25.503 37.8515C25.5113 37.8367 25.5229 37.8239 25.5367 37.814C25.5506 37.8042 25.5665 37.7976 25.5833 37.7946C25.6399 37.7853 25.6872 37.7946 25.6766 37.8183C25.6766 37.8892 25.7239 37.9362 25.7239 37.9928C25.7239 38.0494 25.6909 38.1204 25.573 38.1676C25.4551 38.2006 25.2946 38.2006 25.2709 38.1913C25.2473 38.182 25.2236 38.0874 25.2473 38.0401C25.2709 37.9928 25.3369 37.9411 25.3748 37.9175H25.3755Z" fill="#82764F"/>
<path fill-rule="evenodd" clip-rule="evenodd" d="M25.5263 37.9495C25.5263 37.9495 25.446 37.9967 25.446 38.0204C25.4389 38.0432 25.4357 38.0671 25.4367 38.091C25.4367 38.105 25.5407 38.0816 25.5547 38.0673C25.5593 38.058 25.5263 37.974 25.5263 37.9495Z" fill="#6E6342"/>
<path fill-rule="evenodd" clip-rule="evenodd" d="M24.8245 37.7278C24.8715 37.7374 24.9517 37.7278 25.013 37.7514C25.0603 37.7751 25.0933 37.8223 25.046 37.8789C24.9987 37.9355 24.9527 38.0205 24.8478 38.0061C24.7299 37.9968 24.6167 37.9355 24.6167 37.8883C24.6147 37.8584 24.6187 37.8284 24.6284 37.8C24.6381 37.7717 24.6534 37.7455 24.6733 37.7231C24.7206 37.6855 24.7439 37.7091 24.8242 37.7278H24.8245Z" fill="#585136"/>
<path fill-rule="evenodd" clip-rule="evenodd" d="M24.7674 37.7751C24.7674 37.7751 24.6165 37.8931 24.5785 37.95C24.5313 38.0066 24.3001 38.2991 24.2295 38.3603C24.2529 38.319 24.2797 38.2795 24.3094 38.2424C24.2161 38.3021 24.1461 38.3921 24.1112 38.4972C24.0546 38.6721 24.4276 38.7663 24.6728 38.8373C24.918 38.9082 25.0129 38.9306 25.0129 38.9306C24.9226 38.795 24.8451 38.6512 24.7814 38.5013C24.6881 38.2795 24.6398 38.2558 24.7011 38.1519C24.7484 38.048 24.8194 37.9774 24.8194 37.8971C24.791 37.8224 24.7674 37.7751 24.7674 37.7751Z" fill="#574F35"/>
<path fill-rule="evenodd" clip-rule="evenodd" d="M19.3873 38.1479C19.4217 38.1543 19.4569 38.1543 19.4913 38.1479C19.5619 38.1383 20.2983 37.8679 21.0676 37.9165C21.6436 37.9513 22.2145 38.0451 22.7713 38.1965C23.7388 38.4513 24.9422 38.9563 25.7209 39.2444C25.9284 39.3243 26.1316 39.4662 26.2809 39.5225C26.8757 39.754 26.8991 39.754 27.2484 39.8153C27.6591 39.8719 28.0791 39.735 28.5181 39.6407C29.056 39.5225 29.9763 39.4659 30.7833 39.348C31.0442 39.3118 31.3016 39.2534 31.5526 39.1734C31.5526 39.1734 30.9108 39.8153 29.3721 40.0464C28.7501 40.1409 28.1181 40.1488 27.4939 40.0701C27.003 40.0228 26.6776 39.9519 26.4321 39.8812C26.1537 39.801 25.5825 39.5885 24.8794 39.4145C24.3884 39.287 23.8409 39.1927 23.2134 39.0748C21.6653 38.7914 19.9853 38.4659 19.3867 38.1498L19.3873 38.1479Z" fill="#252211"/>
<path fill-rule="evenodd" clip-rule="evenodd" d="M17.6507 35.2314C17.2774 35.5475 16.8813 35.8496 16.4946 36.1421L15.3289 37.0378C14.9326 37.3302 14.5455 37.6323 14.1489 37.925C13.7522 38.2178 13.3562 38.4959 12.9355 38.765C13.3089 38.449 13.7049 38.1562 14.1013 37.8684C14.4976 37.5806 14.9086 37.2985 15.291 37.0066L16.4567 36.1097C16.8577 35.8173 17.2447 35.5152 17.6507 35.2321V35.2314ZM15.5884 38.5351C15.5884 38.5351 16.0084 38.1858 16.5323 37.6951C17.1834 37.0866 17.9811 36.3076 18.2359 36.1663L15.5881 38.5354L15.5884 38.5351Z" fill="#CFB66C"/>
<path fill-rule="evenodd" clip-rule="evenodd" d="M15.5879 38.5348C15.7957 38.3272 16.0175 38.1244 16.2394 37.9259L16.5791 37.6335C16.683 37.5401 16.8012 37.4353 16.9048 37.3314C17.1123 37.1239 17.3155 36.9017 17.523 36.6896C17.6259 36.5829 17.7346 36.482 17.8487 36.3875C17.9058 36.337 17.9692 36.2941 18.0373 36.2599C18.0942 36.2269 18.1555 36.1666 18.2354 36.156C18.1885 36.2269 18.1318 36.2599 18.0846 36.3212C18.0279 36.3685 17.9806 36.4251 17.9337 36.4721C17.8298 36.576 17.7118 36.6703 17.6079 36.7648C17.3861 36.9537 17.155 37.1382 16.9331 37.3357C16.7113 37.5333 16.5038 37.7464 16.2817 37.9446C16.0412 38.1477 15.8194 38.3459 15.5879 38.5357V38.5348ZM18.4103 36.6469C18.4103 36.6469 16.8718 38.1527 16.5554 38.3979L18.4103 36.6469Z" fill="#CFB66C"/>
<path fill-rule="evenodd" clip-rule="evenodd" d="M18.4105 36.647C18.2721 36.8072 18.1237 36.9585 17.9662 37.1L17.4996 37.5436C17.3487 37.6945 17.2068 37.8457 17.0466 37.9966C16.8814 38.1381 16.7305 38.2766 16.5557 38.4072L17.0086 37.9636C17.1598 37.8127 17.325 37.6855 17.4856 37.5343L17.9386 37.0906C18.0941 36.9351 18.2453 36.7839 18.4105 36.647ZM18.4811 37.4633C18.3393 37.8591 18.1722 38.2454 17.9809 38.6197C17.5845 39.4128 16.99 40.4036 16.7302 40.9089L18.4811 37.4633Z" fill="#CFB66C"/>
<path fill-rule="evenodd" clip-rule="evenodd" d="M18.4816 37.4636C18.4816 37.6382 18.4343 37.7894 18.3777 37.9402C18.3225 38.0913 18.2596 38.2393 18.1892 38.3839C18.1182 38.5254 18.038 38.6766 17.9577 38.8135C17.8774 38.9504 17.7832 39.0917 17.7122 39.2335L17.2356 40.0735C17.0704 40.3535 16.9099 40.6351 16.7354 40.9042C16.8533 40.6021 17.0138 40.319 17.165 40.0406C17.3302 39.7606 17.4811 39.4806 17.6317 39.1909C17.7052 39.0466 17.7713 38.8986 17.8298 38.7476C17.9005 38.5964 17.9711 38.4548 18.028 38.3179C18.0986 38.167 18.1553 38.0252 18.2262 37.8886C18.3062 37.7421 18.3724 37.6005 18.481 37.4636H18.4816Z" fill="#CFB66C"/>
<path fill-rule="evenodd" clip-rule="evenodd" d="M20.1616 41.3335C20.1616 41.3335 19.6949 41.9517 19.7416 42.7351C19.8688 42.3247 20.0293 41.6969 20.1616 41.3335ZM20.6052 41.9532C20.6052 41.9532 20.44 43.6332 20.3031 44.4592C20.4966 43.5044 20.5343 43.5847 20.6052 41.9532ZM23.6963 44.5585C23.6963 44.5585 22.9979 46.6118 22.9836 47.1824C23.1348 46.5956 23.4272 45.3969 23.6963 44.5569V44.5585Z" fill="#DEC270"/>
<path fill-rule="evenodd" clip-rule="evenodd" d="M25.3301 41.2065C25.3301 41.2065 26.4628 43.0754 27.3125 44.6705C27.0826 43.8678 26.5537 42.3956 25.3301 41.2065Z" fill="#CBAF59"/>
<path fill-rule="evenodd" clip-rule="evenodd" d="M28.374 43.9578C28.996 45.0571 29.5568 46.1899 30.054 47.351C29.9598 46.5487 29.7046 45.1755 28.374 43.9578Z" fill="#E3C677"/>
<path fill-rule="evenodd" clip-rule="evenodd" d="M37.3212 46.713C37.5098 46.5951 37.8828 45.953 38.2085 45.7928C38.5339 45.6276 38.7794 45.5946 39.0722 45.2688C39.3646 44.9288 39.4455 44.7213 40.0867 44.4525C40.9836 44.0652 40.3667 43.5649 40.3667 43.5649C40.4655 43.4679 40.5711 43.378 40.6828 43.2961C40.9142 43.1216 41.183 42.9091 41.1597 42.5361C41.1267 41.9085 41.0088 40.9976 40.4942 40.469C40.9945 40.3651 41.9524 40.2945 42.5476 40.1436C43.2364 39.9688 43.5528 39.7233 43.5528 39.7233C43.5528 39.7233 43.1564 39.0485 43.7982 38.369C44.44 37.6896 44.9639 37.2836 45.351 36.5235C44.9073 36.4669 44.231 36.2311 42.5049 36.8869C42.5981 36.9307 42.688 36.9812 42.7741 37.0378C42.7741 37.0378 41.7122 37.3305 41.3252 37.6563C40.6501 38.2272 40.5652 38.6945 39.8338 39.0438C39.1023 39.3932 38.3659 39.2986 37.7574 39.5817C37.1489 39.8649 37.059 40.1056 36.8368 40.2096C36.8841 40.2662 36.8275 40.3605 36.9171 40.4407C36.8605 40.521 36.5301 41.0589 36.195 41.0589C36.228 41.1865 36.5111 41.2807 36.5111 41.2807C36.5111 41.2807 36.3036 41.4319 35.775 41.4696C36.0438 41.7496 36.2989 42.0548 37.002 42.4984C36.9454 42.6163 36.7093 42.7912 36.8039 43.013C36.9078 43.2348 37.1772 43.5369 38.2527 43.7824C37.7051 43.8057 37.0636 43.9333 36.1994 43.8153C35.3357 43.7114 35.1942 43.6501 34.6609 43.7824C34.7176 43.839 34.8685 43.839 35.0007 43.9899C34.8591 43.9992 33.9718 43.886 33.6698 44.2826C33.3537 44.693 33.2168 45.3681 33.2404 45.8211C33.0752 45.9013 32.9147 46.0429 32.995 46.3357C33.0752 46.6284 33.4952 46.7227 33.7643 46.9065C34.0331 47.1047 34.0568 47.1753 34.3119 47.1284C34.5807 47.0717 34.977 46.8029 35.2085 46.8029C35.44 46.8029 35.6048 46.9775 35.6048 46.9775C35.6048 46.9775 36.2327 46.6754 36.294 46.732C36.3506 46.7886 36.3033 47.152 36.3646 47.2086C36.4268 47.2513 37.134 46.8313 37.3228 46.713H37.3212Z" fill="#ECD592"/>
<path fill-rule="evenodd" clip-rule="evenodd" d="M51.0416 27.8265C48.0919 20.2093 40.8001 18.7981 40.8001 18.7981H19.9964L20.0767 26.5569H24.2197V43.8824H19.9961V51.6272H40.2242C45.0993 51.6272 49.0072 46.7281 49.0072 46.7281C55.2652 37.8462 51.0413 27.8265 51.0413 27.8265H51.0416ZM40.3328 41.5083C40.3328 41.5083 38.7461 43.7974 37.0198 43.7974H33.5665L33.4846 26.5759H37.9164C37.9164 26.5759 39.9697 27.0052 41.4043 31.0686C41.4043 31.0686 43.3061 36.8864 40.3328 41.5083Z" fill="white" fill-opacity="0.8"/>
</svg>
