<svg width="17" height="16" viewBox="0 0 17 16" fill="none" xmlns="http://www.w3.org/2000/svg">
<path fill-rule="evenodd" clip-rule="evenodd" d="M4.76218 11.762H4.97822L3.39922 2.74749H1.69922V1.56787H4.48241L5.03009 4.70369H15.32L14.47 10.1914H5.98826L6.26562 11.7593H13.1511C13.1588 11.7593 13.1665 11.7593 13.1742 11.7593C13.8784 11.7593 14.4492 12.2858 14.4492 12.9352C14.4492 13.5847 13.8784 14.1111 13.1742 14.1111C12.4701 14.1111 11.8992 13.5847 11.8992 12.9352C11.8992 12.9299 11.8993 12.9247 11.8993 12.9194H5.94911C5.94918 12.9247 5.94922 12.9299 5.94922 12.9352C5.94922 13.5847 5.37838 14.1111 4.67422 14.1111C3.97006 14.1111 3.39922 13.5847 3.39922 12.9352C3.39922 12.2858 3.97006 11.7593 4.67422 11.7593C4.70379 11.7593 4.73312 11.7602 4.76218 11.762ZM5.23518 5.88068L5.78458 9.01373H13.4037L13.8931 5.88068H5.23518Z" fill="#242424"/>
</svg>
