<svg width="11" height="7" viewBox="0 0 11 7" fill="none" xmlns="http://www.w3.org/2000/svg">
<path d="M6.23095 6.2532L10.688 1.81487C10.7865 1.71756 10.8648 1.6017 10.9183 1.47399C10.9718 1.34627 10.9996 1.20922 10.9998 1.07074C11.0001 0.932264 10.973 0.795098 10.92 0.667158C10.867 0.539218 10.7892 0.423035 10.6911 0.325312C10.495 0.129525 10.2294 0.0193039 9.95223 0.0187213C9.6751 0.0181388 9.40901 0.127242 9.21206 0.322203L5.49085 4.0278L1.78526 0.306591C1.58913 0.110804 1.32349 0.00058279 1.04637 2.40169e-07C0.769239 -0.000582309 0.503143 0.108521 0.306192 0.303482C0.208765 0.401295 0.131604 0.517377 0.0791332 0.645073C0.0266623 0.772768 -8.56556e-05 0.909565 0.000422451 1.04762C-0.00066606 1.18567 0.0255065 1.32258 0.0774401 1.45049C0.129374 1.57841 0.206046 1.69482 0.303061 1.79304L4.7414 6.25007C4.83871 6.3486 4.95456 6.42688 5.08228 6.4804C5.20999 6.53393 5.34705 6.56163 5.48552 6.56193C5.624 6.56222 5.76117 6.53509 5.88911 6.4821C6.01705 6.42911 6.13323 6.35132 6.23095 6.2532Z" fill="#242424"/>
</svg>
